%TF.GenerationSoftware,KiCad,Pcbnew,7.0.1*%
%TF.CreationDate,2023-03-31T22:15:08-04:00*%
%TF.ProjectId,PCB,5043422e-6b69-4636-9164-5f7063625858,rev?*%
%TF.SameCoordinates,Original*%
%TF.FileFunction,Other,Comment*%
%FSLAX46Y46*%
G04 Gerber Fmt 4.6, Leading zero omitted, Abs format (unit mm)*
G04 Created by KiCad (PCBNEW 7.0.1) date 2023-03-31 22:15:08*
%MOMM*%
%LPD*%
G01*
G04 APERTURE LIST*
%ADD10C,0.150000*%
%ADD11C,0.030000*%
%ADD12C,0.120000*%
G04 APERTURE END LIST*
D10*
%TO.C,D65*%
X29625356Y-65491250D02*
X29720594Y-65538869D01*
X29720594Y-65538869D02*
X29911070Y-65538869D01*
X29911070Y-65538869D02*
X30006308Y-65491250D01*
X30006308Y-65491250D02*
X30053927Y-65396011D01*
X30053927Y-65396011D02*
X30053927Y-65348392D01*
X30053927Y-65348392D02*
X30006308Y-65253154D01*
X30006308Y-65253154D02*
X29911070Y-65205535D01*
X29911070Y-65205535D02*
X29768213Y-65205535D01*
X29768213Y-65205535D02*
X29672975Y-65157916D01*
X29672975Y-65157916D02*
X29625356Y-65062678D01*
X29625356Y-65062678D02*
X29625356Y-65015059D01*
X29625356Y-65015059D02*
X29672975Y-64919821D01*
X29672975Y-64919821D02*
X29768213Y-64872202D01*
X29768213Y-64872202D02*
X29911070Y-64872202D01*
X29911070Y-64872202D02*
X30006308Y-64919821D01*
X30387261Y-64872202D02*
X30577737Y-65538869D01*
X30577737Y-65538869D02*
X30768213Y-65062678D01*
X30768213Y-65062678D02*
X30958689Y-65538869D01*
X30958689Y-65538869D02*
X31149165Y-64872202D01*
X31530118Y-65538869D02*
X31530118Y-64872202D01*
X31530118Y-64538869D02*
X31482499Y-64586488D01*
X31482499Y-64586488D02*
X31530118Y-64634107D01*
X31530118Y-64634107D02*
X31577737Y-64586488D01*
X31577737Y-64586488D02*
X31530118Y-64538869D01*
X31530118Y-64538869D02*
X31530118Y-64634107D01*
X31863451Y-64872202D02*
X32244403Y-64872202D01*
X32006308Y-64538869D02*
X32006308Y-65396011D01*
X32006308Y-65396011D02*
X32053927Y-65491250D01*
X32053927Y-65491250D02*
X32149165Y-65538869D01*
X32149165Y-65538869D02*
X32244403Y-65538869D01*
X33006308Y-65491250D02*
X32911070Y-65538869D01*
X32911070Y-65538869D02*
X32720594Y-65538869D01*
X32720594Y-65538869D02*
X32625356Y-65491250D01*
X32625356Y-65491250D02*
X32577737Y-65443630D01*
X32577737Y-65443630D02*
X32530118Y-65348392D01*
X32530118Y-65348392D02*
X32530118Y-65062678D01*
X32530118Y-65062678D02*
X32577737Y-64967440D01*
X32577737Y-64967440D02*
X32625356Y-64919821D01*
X32625356Y-64919821D02*
X32720594Y-64872202D01*
X32720594Y-64872202D02*
X32911070Y-64872202D01*
X32911070Y-64872202D02*
X33006308Y-64919821D01*
X33434880Y-65538869D02*
X33434880Y-64538869D01*
X33863451Y-65538869D02*
X33863451Y-65015059D01*
X33863451Y-65015059D02*
X33815832Y-64919821D01*
X33815832Y-64919821D02*
X33720594Y-64872202D01*
X33720594Y-64872202D02*
X33577737Y-64872202D01*
X33577737Y-64872202D02*
X33482499Y-64919821D01*
X33482499Y-64919821D02*
X33434880Y-64967440D01*
X35530118Y-65491250D02*
X35434880Y-65538869D01*
X35434880Y-65538869D02*
X35244404Y-65538869D01*
X35244404Y-65538869D02*
X35149166Y-65491250D01*
X35149166Y-65491250D02*
X35101547Y-65443630D01*
X35101547Y-65443630D02*
X35053928Y-65348392D01*
X35053928Y-65348392D02*
X35053928Y-65062678D01*
X35053928Y-65062678D02*
X35101547Y-64967440D01*
X35101547Y-64967440D02*
X35149166Y-64919821D01*
X35149166Y-64919821D02*
X35244404Y-64872202D01*
X35244404Y-64872202D02*
X35434880Y-64872202D01*
X35434880Y-64872202D02*
X35530118Y-64919821D01*
X36339642Y-65491250D02*
X36244404Y-65538869D01*
X36244404Y-65538869D02*
X36053928Y-65538869D01*
X36053928Y-65538869D02*
X35958690Y-65491250D01*
X35958690Y-65491250D02*
X35911071Y-65396011D01*
X35911071Y-65396011D02*
X35911071Y-65015059D01*
X35911071Y-65015059D02*
X35958690Y-64919821D01*
X35958690Y-64919821D02*
X36053928Y-64872202D01*
X36053928Y-64872202D02*
X36244404Y-64872202D01*
X36244404Y-64872202D02*
X36339642Y-64919821D01*
X36339642Y-64919821D02*
X36387261Y-65015059D01*
X36387261Y-65015059D02*
X36387261Y-65110297D01*
X36387261Y-65110297D02*
X35911071Y-65205535D01*
X36815833Y-64872202D02*
X36815833Y-65538869D01*
X36815833Y-64967440D02*
X36863452Y-64919821D01*
X36863452Y-64919821D02*
X36958690Y-64872202D01*
X36958690Y-64872202D02*
X37101547Y-64872202D01*
X37101547Y-64872202D02*
X37196785Y-64919821D01*
X37196785Y-64919821D02*
X37244404Y-65015059D01*
X37244404Y-65015059D02*
X37244404Y-65538869D01*
X37577738Y-64872202D02*
X37958690Y-64872202D01*
X37720595Y-64538869D02*
X37720595Y-65396011D01*
X37720595Y-65396011D02*
X37768214Y-65491250D01*
X37768214Y-65491250D02*
X37863452Y-65538869D01*
X37863452Y-65538869D02*
X37958690Y-65538869D01*
X38672976Y-65491250D02*
X38577738Y-65538869D01*
X38577738Y-65538869D02*
X38387262Y-65538869D01*
X38387262Y-65538869D02*
X38292024Y-65491250D01*
X38292024Y-65491250D02*
X38244405Y-65396011D01*
X38244405Y-65396011D02*
X38244405Y-65015059D01*
X38244405Y-65015059D02*
X38292024Y-64919821D01*
X38292024Y-64919821D02*
X38387262Y-64872202D01*
X38387262Y-64872202D02*
X38577738Y-64872202D01*
X38577738Y-64872202D02*
X38672976Y-64919821D01*
X38672976Y-64919821D02*
X38720595Y-65015059D01*
X38720595Y-65015059D02*
X38720595Y-65110297D01*
X38720595Y-65110297D02*
X38244405Y-65205535D01*
X39149167Y-65538869D02*
X39149167Y-64872202D01*
X39149167Y-65062678D02*
X39196786Y-64967440D01*
X39196786Y-64967440D02*
X39244405Y-64919821D01*
X39244405Y-64919821D02*
X39339643Y-64872202D01*
X39339643Y-64872202D02*
X39434881Y-64872202D01*
%TO.C,D64*%
X24862856Y-65491250D02*
X24958094Y-65538869D01*
X24958094Y-65538869D02*
X25148570Y-65538869D01*
X25148570Y-65538869D02*
X25243808Y-65491250D01*
X25243808Y-65491250D02*
X25291427Y-65396011D01*
X25291427Y-65396011D02*
X25291427Y-65348392D01*
X25291427Y-65348392D02*
X25243808Y-65253154D01*
X25243808Y-65253154D02*
X25148570Y-65205535D01*
X25148570Y-65205535D02*
X25005713Y-65205535D01*
X25005713Y-65205535D02*
X24910475Y-65157916D01*
X24910475Y-65157916D02*
X24862856Y-65062678D01*
X24862856Y-65062678D02*
X24862856Y-65015059D01*
X24862856Y-65015059D02*
X24910475Y-64919821D01*
X24910475Y-64919821D02*
X25005713Y-64872202D01*
X25005713Y-64872202D02*
X25148570Y-64872202D01*
X25148570Y-64872202D02*
X25243808Y-64919821D01*
X25624761Y-64872202D02*
X25815237Y-65538869D01*
X25815237Y-65538869D02*
X26005713Y-65062678D01*
X26005713Y-65062678D02*
X26196189Y-65538869D01*
X26196189Y-65538869D02*
X26386665Y-64872202D01*
X26767618Y-65538869D02*
X26767618Y-64872202D01*
X26767618Y-64538869D02*
X26719999Y-64586488D01*
X26719999Y-64586488D02*
X26767618Y-64634107D01*
X26767618Y-64634107D02*
X26815237Y-64586488D01*
X26815237Y-64586488D02*
X26767618Y-64538869D01*
X26767618Y-64538869D02*
X26767618Y-64634107D01*
X27100951Y-64872202D02*
X27481903Y-64872202D01*
X27243808Y-64538869D02*
X27243808Y-65396011D01*
X27243808Y-65396011D02*
X27291427Y-65491250D01*
X27291427Y-65491250D02*
X27386665Y-65538869D01*
X27386665Y-65538869D02*
X27481903Y-65538869D01*
X28243808Y-65491250D02*
X28148570Y-65538869D01*
X28148570Y-65538869D02*
X27958094Y-65538869D01*
X27958094Y-65538869D02*
X27862856Y-65491250D01*
X27862856Y-65491250D02*
X27815237Y-65443630D01*
X27815237Y-65443630D02*
X27767618Y-65348392D01*
X27767618Y-65348392D02*
X27767618Y-65062678D01*
X27767618Y-65062678D02*
X27815237Y-64967440D01*
X27815237Y-64967440D02*
X27862856Y-64919821D01*
X27862856Y-64919821D02*
X27958094Y-64872202D01*
X27958094Y-64872202D02*
X28148570Y-64872202D01*
X28148570Y-64872202D02*
X28243808Y-64919821D01*
X28672380Y-65538869D02*
X28672380Y-64538869D01*
X29100951Y-65538869D02*
X29100951Y-65015059D01*
X29100951Y-65015059D02*
X29053332Y-64919821D01*
X29053332Y-64919821D02*
X28958094Y-64872202D01*
X28958094Y-64872202D02*
X28815237Y-64872202D01*
X28815237Y-64872202D02*
X28719999Y-64919821D01*
X28719999Y-64919821D02*
X28672380Y-64967440D01*
X30767618Y-65491250D02*
X30672380Y-65538869D01*
X30672380Y-65538869D02*
X30481904Y-65538869D01*
X30481904Y-65538869D02*
X30386666Y-65491250D01*
X30386666Y-65491250D02*
X30339047Y-65443630D01*
X30339047Y-65443630D02*
X30291428Y-65348392D01*
X30291428Y-65348392D02*
X30291428Y-65062678D01*
X30291428Y-65062678D02*
X30339047Y-64967440D01*
X30339047Y-64967440D02*
X30386666Y-64919821D01*
X30386666Y-64919821D02*
X30481904Y-64872202D01*
X30481904Y-64872202D02*
X30672380Y-64872202D01*
X30672380Y-64872202D02*
X30767618Y-64919821D01*
X31577142Y-65491250D02*
X31481904Y-65538869D01*
X31481904Y-65538869D02*
X31291428Y-65538869D01*
X31291428Y-65538869D02*
X31196190Y-65491250D01*
X31196190Y-65491250D02*
X31148571Y-65396011D01*
X31148571Y-65396011D02*
X31148571Y-65015059D01*
X31148571Y-65015059D02*
X31196190Y-64919821D01*
X31196190Y-64919821D02*
X31291428Y-64872202D01*
X31291428Y-64872202D02*
X31481904Y-64872202D01*
X31481904Y-64872202D02*
X31577142Y-64919821D01*
X31577142Y-64919821D02*
X31624761Y-65015059D01*
X31624761Y-65015059D02*
X31624761Y-65110297D01*
X31624761Y-65110297D02*
X31148571Y-65205535D01*
X32053333Y-64872202D02*
X32053333Y-65538869D01*
X32053333Y-64967440D02*
X32100952Y-64919821D01*
X32100952Y-64919821D02*
X32196190Y-64872202D01*
X32196190Y-64872202D02*
X32339047Y-64872202D01*
X32339047Y-64872202D02*
X32434285Y-64919821D01*
X32434285Y-64919821D02*
X32481904Y-65015059D01*
X32481904Y-65015059D02*
X32481904Y-65538869D01*
X32815238Y-64872202D02*
X33196190Y-64872202D01*
X32958095Y-64538869D02*
X32958095Y-65396011D01*
X32958095Y-65396011D02*
X33005714Y-65491250D01*
X33005714Y-65491250D02*
X33100952Y-65538869D01*
X33100952Y-65538869D02*
X33196190Y-65538869D01*
X33910476Y-65491250D02*
X33815238Y-65538869D01*
X33815238Y-65538869D02*
X33624762Y-65538869D01*
X33624762Y-65538869D02*
X33529524Y-65491250D01*
X33529524Y-65491250D02*
X33481905Y-65396011D01*
X33481905Y-65396011D02*
X33481905Y-65015059D01*
X33481905Y-65015059D02*
X33529524Y-64919821D01*
X33529524Y-64919821D02*
X33624762Y-64872202D01*
X33624762Y-64872202D02*
X33815238Y-64872202D01*
X33815238Y-64872202D02*
X33910476Y-64919821D01*
X33910476Y-64919821D02*
X33958095Y-65015059D01*
X33958095Y-65015059D02*
X33958095Y-65110297D01*
X33958095Y-65110297D02*
X33481905Y-65205535D01*
X34386667Y-65538869D02*
X34386667Y-64872202D01*
X34386667Y-65062678D02*
X34434286Y-64967440D01*
X34434286Y-64967440D02*
X34481905Y-64919821D01*
X34481905Y-64919821D02*
X34577143Y-64872202D01*
X34577143Y-64872202D02*
X34672381Y-64872202D01*
D11*
%TO.C,SW73*%
X94894465Y-104233773D02*
X94894465Y-104033773D01*
X95008750Y-104233773D02*
X94923036Y-104119488D01*
X95008750Y-104033773D02*
X94894465Y-104148059D01*
X95094465Y-104129011D02*
X95161131Y-104129011D01*
X95189703Y-104233773D02*
X95094465Y-104233773D01*
X95094465Y-104233773D02*
X95094465Y-104033773D01*
X95094465Y-104033773D02*
X95189703Y-104033773D01*
X95275417Y-104129011D02*
X95342083Y-104129011D01*
X95370655Y-104233773D02*
X95275417Y-104233773D01*
X95275417Y-104233773D02*
X95275417Y-104033773D01*
X95275417Y-104033773D02*
X95370655Y-104033773D01*
X95456369Y-104233773D02*
X95456369Y-104033773D01*
X95456369Y-104033773D02*
X95532559Y-104033773D01*
X95532559Y-104033773D02*
X95551607Y-104043297D01*
X95551607Y-104043297D02*
X95561130Y-104052821D01*
X95561130Y-104052821D02*
X95570654Y-104071869D01*
X95570654Y-104071869D02*
X95570654Y-104100440D01*
X95570654Y-104100440D02*
X95561130Y-104119488D01*
X95561130Y-104119488D02*
X95551607Y-104129011D01*
X95551607Y-104129011D02*
X95532559Y-104138535D01*
X95532559Y-104138535D02*
X95456369Y-104138535D01*
X95656369Y-104157583D02*
X95808750Y-104157583D01*
X95942083Y-104033773D02*
X95980178Y-104033773D01*
X95980178Y-104033773D02*
X95999226Y-104043297D01*
X95999226Y-104043297D02*
X96018273Y-104062345D01*
X96018273Y-104062345D02*
X96027797Y-104100440D01*
X96027797Y-104100440D02*
X96027797Y-104167107D01*
X96027797Y-104167107D02*
X96018273Y-104205202D01*
X96018273Y-104205202D02*
X95999226Y-104224250D01*
X95999226Y-104224250D02*
X95980178Y-104233773D01*
X95980178Y-104233773D02*
X95942083Y-104233773D01*
X95942083Y-104233773D02*
X95923035Y-104224250D01*
X95923035Y-104224250D02*
X95903988Y-104205202D01*
X95903988Y-104205202D02*
X95894464Y-104167107D01*
X95894464Y-104167107D02*
X95894464Y-104100440D01*
X95894464Y-104100440D02*
X95903988Y-104062345D01*
X95903988Y-104062345D02*
X95923035Y-104043297D01*
X95923035Y-104043297D02*
X95942083Y-104033773D01*
X96113512Y-104033773D02*
X96113512Y-104195678D01*
X96113512Y-104195678D02*
X96123035Y-104214726D01*
X96123035Y-104214726D02*
X96132559Y-104224250D01*
X96132559Y-104224250D02*
X96151607Y-104233773D01*
X96151607Y-104233773D02*
X96189702Y-104233773D01*
X96189702Y-104233773D02*
X96208750Y-104224250D01*
X96208750Y-104224250D02*
X96218273Y-104214726D01*
X96218273Y-104214726D02*
X96227797Y-104195678D01*
X96227797Y-104195678D02*
X96227797Y-104033773D01*
X96294464Y-104033773D02*
X96408750Y-104033773D01*
X96351607Y-104233773D02*
X96351607Y-104033773D01*
X96608750Y-104033773D02*
X96742083Y-104033773D01*
X96742083Y-104033773D02*
X96608750Y-104233773D01*
X96608750Y-104233773D02*
X96742083Y-104233773D01*
X96856369Y-104033773D02*
X96894464Y-104033773D01*
X96894464Y-104033773D02*
X96913512Y-104043297D01*
X96913512Y-104043297D02*
X96932559Y-104062345D01*
X96932559Y-104062345D02*
X96942083Y-104100440D01*
X96942083Y-104100440D02*
X96942083Y-104167107D01*
X96942083Y-104167107D02*
X96932559Y-104205202D01*
X96932559Y-104205202D02*
X96913512Y-104224250D01*
X96913512Y-104224250D02*
X96894464Y-104233773D01*
X96894464Y-104233773D02*
X96856369Y-104233773D01*
X96856369Y-104233773D02*
X96837321Y-104224250D01*
X96837321Y-104224250D02*
X96818274Y-104205202D01*
X96818274Y-104205202D02*
X96808750Y-104167107D01*
X96808750Y-104167107D02*
X96808750Y-104100440D01*
X96808750Y-104100440D02*
X96818274Y-104062345D01*
X96818274Y-104062345D02*
X96837321Y-104043297D01*
X96837321Y-104043297D02*
X96856369Y-104033773D01*
X97027798Y-104233773D02*
X97027798Y-104033773D01*
X97027798Y-104033773D02*
X97142083Y-104233773D01*
X97142083Y-104233773D02*
X97142083Y-104033773D01*
X97237322Y-104129011D02*
X97303988Y-104129011D01*
X97332560Y-104233773D02*
X97237322Y-104233773D01*
X97237322Y-104233773D02*
X97237322Y-104033773D01*
X97237322Y-104033773D02*
X97332560Y-104033773D01*
X89894465Y-104233773D02*
X89894465Y-104033773D01*
X90008750Y-104233773D02*
X89923036Y-104119488D01*
X90008750Y-104033773D02*
X89894465Y-104148059D01*
X90094465Y-104129011D02*
X90161131Y-104129011D01*
X90189703Y-104233773D02*
X90094465Y-104233773D01*
X90094465Y-104233773D02*
X90094465Y-104033773D01*
X90094465Y-104033773D02*
X90189703Y-104033773D01*
X90275417Y-104129011D02*
X90342083Y-104129011D01*
X90370655Y-104233773D02*
X90275417Y-104233773D01*
X90275417Y-104233773D02*
X90275417Y-104033773D01*
X90275417Y-104033773D02*
X90370655Y-104033773D01*
X90456369Y-104233773D02*
X90456369Y-104033773D01*
X90456369Y-104033773D02*
X90532559Y-104033773D01*
X90532559Y-104033773D02*
X90551607Y-104043297D01*
X90551607Y-104043297D02*
X90561130Y-104052821D01*
X90561130Y-104052821D02*
X90570654Y-104071869D01*
X90570654Y-104071869D02*
X90570654Y-104100440D01*
X90570654Y-104100440D02*
X90561130Y-104119488D01*
X90561130Y-104119488D02*
X90551607Y-104129011D01*
X90551607Y-104129011D02*
X90532559Y-104138535D01*
X90532559Y-104138535D02*
X90456369Y-104138535D01*
X90656369Y-104157583D02*
X90808750Y-104157583D01*
X90942083Y-104033773D02*
X90980178Y-104033773D01*
X90980178Y-104033773D02*
X90999226Y-104043297D01*
X90999226Y-104043297D02*
X91018273Y-104062345D01*
X91018273Y-104062345D02*
X91027797Y-104100440D01*
X91027797Y-104100440D02*
X91027797Y-104167107D01*
X91027797Y-104167107D02*
X91018273Y-104205202D01*
X91018273Y-104205202D02*
X90999226Y-104224250D01*
X90999226Y-104224250D02*
X90980178Y-104233773D01*
X90980178Y-104233773D02*
X90942083Y-104233773D01*
X90942083Y-104233773D02*
X90923035Y-104224250D01*
X90923035Y-104224250D02*
X90903988Y-104205202D01*
X90903988Y-104205202D02*
X90894464Y-104167107D01*
X90894464Y-104167107D02*
X90894464Y-104100440D01*
X90894464Y-104100440D02*
X90903988Y-104062345D01*
X90903988Y-104062345D02*
X90923035Y-104043297D01*
X90923035Y-104043297D02*
X90942083Y-104033773D01*
X91113512Y-104033773D02*
X91113512Y-104195678D01*
X91113512Y-104195678D02*
X91123035Y-104214726D01*
X91123035Y-104214726D02*
X91132559Y-104224250D01*
X91132559Y-104224250D02*
X91151607Y-104233773D01*
X91151607Y-104233773D02*
X91189702Y-104233773D01*
X91189702Y-104233773D02*
X91208750Y-104224250D01*
X91208750Y-104224250D02*
X91218273Y-104214726D01*
X91218273Y-104214726D02*
X91227797Y-104195678D01*
X91227797Y-104195678D02*
X91227797Y-104033773D01*
X91294464Y-104033773D02*
X91408750Y-104033773D01*
X91351607Y-104233773D02*
X91351607Y-104033773D01*
X91608750Y-104033773D02*
X91742083Y-104033773D01*
X91742083Y-104033773D02*
X91608750Y-104233773D01*
X91608750Y-104233773D02*
X91742083Y-104233773D01*
X91856369Y-104033773D02*
X91894464Y-104033773D01*
X91894464Y-104033773D02*
X91913512Y-104043297D01*
X91913512Y-104043297D02*
X91932559Y-104062345D01*
X91932559Y-104062345D02*
X91942083Y-104100440D01*
X91942083Y-104100440D02*
X91942083Y-104167107D01*
X91942083Y-104167107D02*
X91932559Y-104205202D01*
X91932559Y-104205202D02*
X91913512Y-104224250D01*
X91913512Y-104224250D02*
X91894464Y-104233773D01*
X91894464Y-104233773D02*
X91856369Y-104233773D01*
X91856369Y-104233773D02*
X91837321Y-104224250D01*
X91837321Y-104224250D02*
X91818274Y-104205202D01*
X91818274Y-104205202D02*
X91808750Y-104167107D01*
X91808750Y-104167107D02*
X91808750Y-104100440D01*
X91808750Y-104100440D02*
X91818274Y-104062345D01*
X91818274Y-104062345D02*
X91837321Y-104043297D01*
X91837321Y-104043297D02*
X91856369Y-104033773D01*
X92027798Y-104233773D02*
X92027798Y-104033773D01*
X92027798Y-104033773D02*
X92142083Y-104233773D01*
X92142083Y-104233773D02*
X92142083Y-104033773D01*
X92237322Y-104129011D02*
X92303988Y-104129011D01*
X92332560Y-104233773D02*
X92237322Y-104233773D01*
X92237322Y-104233773D02*
X92237322Y-104033773D01*
X92237322Y-104033773D02*
X92332560Y-104033773D01*
X95027797Y-104633773D02*
X95027797Y-104433773D01*
X95027797Y-104433773D02*
X95142082Y-104633773D01*
X95142082Y-104633773D02*
X95142082Y-104433773D01*
X95265892Y-104633773D02*
X95246844Y-104624250D01*
X95246844Y-104624250D02*
X95237321Y-104614726D01*
X95237321Y-104614726D02*
X95227797Y-104595678D01*
X95227797Y-104595678D02*
X95227797Y-104538535D01*
X95227797Y-104538535D02*
X95237321Y-104519488D01*
X95237321Y-104519488D02*
X95246844Y-104509964D01*
X95246844Y-104509964D02*
X95265892Y-104500440D01*
X95265892Y-104500440D02*
X95294463Y-104500440D01*
X95294463Y-104500440D02*
X95313511Y-104509964D01*
X95313511Y-104509964D02*
X95323035Y-104519488D01*
X95323035Y-104519488D02*
X95332559Y-104538535D01*
X95332559Y-104538535D02*
X95332559Y-104595678D01*
X95332559Y-104595678D02*
X95323035Y-104614726D01*
X95323035Y-104614726D02*
X95313511Y-104624250D01*
X95313511Y-104624250D02*
X95294463Y-104633773D01*
X95294463Y-104633773D02*
X95265892Y-104633773D01*
X95637320Y-104529011D02*
X95570654Y-104529011D01*
X95570654Y-104633773D02*
X95570654Y-104433773D01*
X95570654Y-104433773D02*
X95665892Y-104433773D01*
X95742083Y-104614726D02*
X95751606Y-104624250D01*
X95751606Y-104624250D02*
X95742083Y-104633773D01*
X95742083Y-104633773D02*
X95732559Y-104624250D01*
X95732559Y-104624250D02*
X95742083Y-104614726D01*
X95742083Y-104614726D02*
X95742083Y-104633773D01*
X95951606Y-104614726D02*
X95942082Y-104624250D01*
X95942082Y-104624250D02*
X95913511Y-104633773D01*
X95913511Y-104633773D02*
X95894463Y-104633773D01*
X95894463Y-104633773D02*
X95865892Y-104624250D01*
X95865892Y-104624250D02*
X95846844Y-104605202D01*
X95846844Y-104605202D02*
X95837321Y-104586154D01*
X95837321Y-104586154D02*
X95827797Y-104548059D01*
X95827797Y-104548059D02*
X95827797Y-104519488D01*
X95827797Y-104519488D02*
X95837321Y-104481392D01*
X95837321Y-104481392D02*
X95846844Y-104462345D01*
X95846844Y-104462345D02*
X95865892Y-104443297D01*
X95865892Y-104443297D02*
X95894463Y-104433773D01*
X95894463Y-104433773D02*
X95913511Y-104433773D01*
X95913511Y-104433773D02*
X95942082Y-104443297D01*
X95942082Y-104443297D02*
X95951606Y-104452821D01*
X96123035Y-104500440D02*
X96123035Y-104633773D01*
X96037321Y-104500440D02*
X96037321Y-104605202D01*
X96037321Y-104605202D02*
X96046844Y-104624250D01*
X96046844Y-104624250D02*
X96065892Y-104633773D01*
X96065892Y-104633773D02*
X96094463Y-104633773D01*
X96094463Y-104633773D02*
X96113511Y-104624250D01*
X96113511Y-104624250D02*
X96123035Y-104614726D01*
X96342082Y-104500440D02*
X96418273Y-104500440D01*
X96370654Y-104433773D02*
X96370654Y-104605202D01*
X96370654Y-104605202D02*
X96380177Y-104624250D01*
X96380177Y-104624250D02*
X96399225Y-104633773D01*
X96399225Y-104633773D02*
X96418273Y-104633773D01*
X96484940Y-104633773D02*
X96484940Y-104500440D01*
X96484940Y-104538535D02*
X96494463Y-104519488D01*
X96494463Y-104519488D02*
X96503987Y-104509964D01*
X96503987Y-104509964D02*
X96523035Y-104500440D01*
X96523035Y-104500440D02*
X96542082Y-104500440D01*
X96694464Y-104633773D02*
X96694464Y-104529011D01*
X96694464Y-104529011D02*
X96684940Y-104509964D01*
X96684940Y-104509964D02*
X96665892Y-104500440D01*
X96665892Y-104500440D02*
X96627797Y-104500440D01*
X96627797Y-104500440D02*
X96608750Y-104509964D01*
X96694464Y-104624250D02*
X96675416Y-104633773D01*
X96675416Y-104633773D02*
X96627797Y-104633773D01*
X96627797Y-104633773D02*
X96608750Y-104624250D01*
X96608750Y-104624250D02*
X96599226Y-104605202D01*
X96599226Y-104605202D02*
X96599226Y-104586154D01*
X96599226Y-104586154D02*
X96608750Y-104567107D01*
X96608750Y-104567107D02*
X96627797Y-104557583D01*
X96627797Y-104557583D02*
X96675416Y-104557583D01*
X96675416Y-104557583D02*
X96694464Y-104548059D01*
X96875416Y-104624250D02*
X96856368Y-104633773D01*
X96856368Y-104633773D02*
X96818273Y-104633773D01*
X96818273Y-104633773D02*
X96799225Y-104624250D01*
X96799225Y-104624250D02*
X96789702Y-104614726D01*
X96789702Y-104614726D02*
X96780178Y-104595678D01*
X96780178Y-104595678D02*
X96780178Y-104538535D01*
X96780178Y-104538535D02*
X96789702Y-104519488D01*
X96789702Y-104519488D02*
X96799225Y-104509964D01*
X96799225Y-104509964D02*
X96818273Y-104500440D01*
X96818273Y-104500440D02*
X96856368Y-104500440D01*
X96856368Y-104500440D02*
X96875416Y-104509964D01*
X96961131Y-104633773D02*
X96961131Y-104433773D01*
X96980178Y-104557583D02*
X97037321Y-104633773D01*
X97037321Y-104500440D02*
X96961131Y-104576630D01*
X97113512Y-104624250D02*
X97132559Y-104633773D01*
X97132559Y-104633773D02*
X97170655Y-104633773D01*
X97170655Y-104633773D02*
X97189702Y-104624250D01*
X97189702Y-104624250D02*
X97199226Y-104605202D01*
X97199226Y-104605202D02*
X97199226Y-104595678D01*
X97199226Y-104595678D02*
X97189702Y-104576630D01*
X97189702Y-104576630D02*
X97170655Y-104567107D01*
X97170655Y-104567107D02*
X97142083Y-104567107D01*
X97142083Y-104567107D02*
X97123036Y-104557583D01*
X97123036Y-104557583D02*
X97113512Y-104538535D01*
X97113512Y-104538535D02*
X97113512Y-104529011D01*
X97113512Y-104529011D02*
X97123036Y-104509964D01*
X97123036Y-104509964D02*
X97142083Y-104500440D01*
X97142083Y-104500440D02*
X97170655Y-104500440D01*
X97170655Y-104500440D02*
X97189702Y-104509964D01*
X90027797Y-104633773D02*
X90027797Y-104433773D01*
X90027797Y-104433773D02*
X90142082Y-104633773D01*
X90142082Y-104633773D02*
X90142082Y-104433773D01*
X90265892Y-104633773D02*
X90246844Y-104624250D01*
X90246844Y-104624250D02*
X90237321Y-104614726D01*
X90237321Y-104614726D02*
X90227797Y-104595678D01*
X90227797Y-104595678D02*
X90227797Y-104538535D01*
X90227797Y-104538535D02*
X90237321Y-104519488D01*
X90237321Y-104519488D02*
X90246844Y-104509964D01*
X90246844Y-104509964D02*
X90265892Y-104500440D01*
X90265892Y-104500440D02*
X90294463Y-104500440D01*
X90294463Y-104500440D02*
X90313511Y-104509964D01*
X90313511Y-104509964D02*
X90323035Y-104519488D01*
X90323035Y-104519488D02*
X90332559Y-104538535D01*
X90332559Y-104538535D02*
X90332559Y-104595678D01*
X90332559Y-104595678D02*
X90323035Y-104614726D01*
X90323035Y-104614726D02*
X90313511Y-104624250D01*
X90313511Y-104624250D02*
X90294463Y-104633773D01*
X90294463Y-104633773D02*
X90265892Y-104633773D01*
X90637320Y-104529011D02*
X90570654Y-104529011D01*
X90570654Y-104633773D02*
X90570654Y-104433773D01*
X90570654Y-104433773D02*
X90665892Y-104433773D01*
X90742083Y-104614726D02*
X90751606Y-104624250D01*
X90751606Y-104624250D02*
X90742083Y-104633773D01*
X90742083Y-104633773D02*
X90732559Y-104624250D01*
X90732559Y-104624250D02*
X90742083Y-104614726D01*
X90742083Y-104614726D02*
X90742083Y-104633773D01*
X90951606Y-104614726D02*
X90942082Y-104624250D01*
X90942082Y-104624250D02*
X90913511Y-104633773D01*
X90913511Y-104633773D02*
X90894463Y-104633773D01*
X90894463Y-104633773D02*
X90865892Y-104624250D01*
X90865892Y-104624250D02*
X90846844Y-104605202D01*
X90846844Y-104605202D02*
X90837321Y-104586154D01*
X90837321Y-104586154D02*
X90827797Y-104548059D01*
X90827797Y-104548059D02*
X90827797Y-104519488D01*
X90827797Y-104519488D02*
X90837321Y-104481392D01*
X90837321Y-104481392D02*
X90846844Y-104462345D01*
X90846844Y-104462345D02*
X90865892Y-104443297D01*
X90865892Y-104443297D02*
X90894463Y-104433773D01*
X90894463Y-104433773D02*
X90913511Y-104433773D01*
X90913511Y-104433773D02*
X90942082Y-104443297D01*
X90942082Y-104443297D02*
X90951606Y-104452821D01*
X91123035Y-104500440D02*
X91123035Y-104633773D01*
X91037321Y-104500440D02*
X91037321Y-104605202D01*
X91037321Y-104605202D02*
X91046844Y-104624250D01*
X91046844Y-104624250D02*
X91065892Y-104633773D01*
X91065892Y-104633773D02*
X91094463Y-104633773D01*
X91094463Y-104633773D02*
X91113511Y-104624250D01*
X91113511Y-104624250D02*
X91123035Y-104614726D01*
X91342082Y-104500440D02*
X91418273Y-104500440D01*
X91370654Y-104433773D02*
X91370654Y-104605202D01*
X91370654Y-104605202D02*
X91380177Y-104624250D01*
X91380177Y-104624250D02*
X91399225Y-104633773D01*
X91399225Y-104633773D02*
X91418273Y-104633773D01*
X91484940Y-104633773D02*
X91484940Y-104500440D01*
X91484940Y-104538535D02*
X91494463Y-104519488D01*
X91494463Y-104519488D02*
X91503987Y-104509964D01*
X91503987Y-104509964D02*
X91523035Y-104500440D01*
X91523035Y-104500440D02*
X91542082Y-104500440D01*
X91694464Y-104633773D02*
X91694464Y-104529011D01*
X91694464Y-104529011D02*
X91684940Y-104509964D01*
X91684940Y-104509964D02*
X91665892Y-104500440D01*
X91665892Y-104500440D02*
X91627797Y-104500440D01*
X91627797Y-104500440D02*
X91608750Y-104509964D01*
X91694464Y-104624250D02*
X91675416Y-104633773D01*
X91675416Y-104633773D02*
X91627797Y-104633773D01*
X91627797Y-104633773D02*
X91608750Y-104624250D01*
X91608750Y-104624250D02*
X91599226Y-104605202D01*
X91599226Y-104605202D02*
X91599226Y-104586154D01*
X91599226Y-104586154D02*
X91608750Y-104567107D01*
X91608750Y-104567107D02*
X91627797Y-104557583D01*
X91627797Y-104557583D02*
X91675416Y-104557583D01*
X91675416Y-104557583D02*
X91694464Y-104548059D01*
X91875416Y-104624250D02*
X91856368Y-104633773D01*
X91856368Y-104633773D02*
X91818273Y-104633773D01*
X91818273Y-104633773D02*
X91799225Y-104624250D01*
X91799225Y-104624250D02*
X91789702Y-104614726D01*
X91789702Y-104614726D02*
X91780178Y-104595678D01*
X91780178Y-104595678D02*
X91780178Y-104538535D01*
X91780178Y-104538535D02*
X91789702Y-104519488D01*
X91789702Y-104519488D02*
X91799225Y-104509964D01*
X91799225Y-104509964D02*
X91818273Y-104500440D01*
X91818273Y-104500440D02*
X91856368Y-104500440D01*
X91856368Y-104500440D02*
X91875416Y-104509964D01*
X91961131Y-104633773D02*
X91961131Y-104433773D01*
X91980178Y-104557583D02*
X92037321Y-104633773D01*
X92037321Y-104500440D02*
X91961131Y-104576630D01*
X92113512Y-104624250D02*
X92132559Y-104633773D01*
X92132559Y-104633773D02*
X92170655Y-104633773D01*
X92170655Y-104633773D02*
X92189702Y-104624250D01*
X92189702Y-104624250D02*
X92199226Y-104605202D01*
X92199226Y-104605202D02*
X92199226Y-104595678D01*
X92199226Y-104595678D02*
X92189702Y-104576630D01*
X92189702Y-104576630D02*
X92170655Y-104567107D01*
X92170655Y-104567107D02*
X92142083Y-104567107D01*
X92142083Y-104567107D02*
X92123036Y-104557583D01*
X92123036Y-104557583D02*
X92113512Y-104538535D01*
X92113512Y-104538535D02*
X92113512Y-104529011D01*
X92113512Y-104529011D02*
X92123036Y-104509964D01*
X92123036Y-104509964D02*
X92142083Y-104500440D01*
X92142083Y-104500440D02*
X92170655Y-104500440D01*
X92170655Y-104500440D02*
X92189702Y-104509964D01*
%TO.C,SW72*%
X104517797Y-104633773D02*
X104517797Y-104433773D01*
X104517797Y-104433773D02*
X104632082Y-104633773D01*
X104632082Y-104633773D02*
X104632082Y-104433773D01*
X104755892Y-104633773D02*
X104736844Y-104624250D01*
X104736844Y-104624250D02*
X104727321Y-104614726D01*
X104727321Y-104614726D02*
X104717797Y-104595678D01*
X104717797Y-104595678D02*
X104717797Y-104538535D01*
X104717797Y-104538535D02*
X104727321Y-104519488D01*
X104727321Y-104519488D02*
X104736844Y-104509964D01*
X104736844Y-104509964D02*
X104755892Y-104500440D01*
X104755892Y-104500440D02*
X104784463Y-104500440D01*
X104784463Y-104500440D02*
X104803511Y-104509964D01*
X104803511Y-104509964D02*
X104813035Y-104519488D01*
X104813035Y-104519488D02*
X104822559Y-104538535D01*
X104822559Y-104538535D02*
X104822559Y-104595678D01*
X104822559Y-104595678D02*
X104813035Y-104614726D01*
X104813035Y-104614726D02*
X104803511Y-104624250D01*
X104803511Y-104624250D02*
X104784463Y-104633773D01*
X104784463Y-104633773D02*
X104755892Y-104633773D01*
X105127320Y-104529011D02*
X105060654Y-104529011D01*
X105060654Y-104633773D02*
X105060654Y-104433773D01*
X105060654Y-104433773D02*
X105155892Y-104433773D01*
X105232083Y-104614726D02*
X105241606Y-104624250D01*
X105241606Y-104624250D02*
X105232083Y-104633773D01*
X105232083Y-104633773D02*
X105222559Y-104624250D01*
X105222559Y-104624250D02*
X105232083Y-104614726D01*
X105232083Y-104614726D02*
X105232083Y-104633773D01*
X105441606Y-104614726D02*
X105432082Y-104624250D01*
X105432082Y-104624250D02*
X105403511Y-104633773D01*
X105403511Y-104633773D02*
X105384463Y-104633773D01*
X105384463Y-104633773D02*
X105355892Y-104624250D01*
X105355892Y-104624250D02*
X105336844Y-104605202D01*
X105336844Y-104605202D02*
X105327321Y-104586154D01*
X105327321Y-104586154D02*
X105317797Y-104548059D01*
X105317797Y-104548059D02*
X105317797Y-104519488D01*
X105317797Y-104519488D02*
X105327321Y-104481392D01*
X105327321Y-104481392D02*
X105336844Y-104462345D01*
X105336844Y-104462345D02*
X105355892Y-104443297D01*
X105355892Y-104443297D02*
X105384463Y-104433773D01*
X105384463Y-104433773D02*
X105403511Y-104433773D01*
X105403511Y-104433773D02*
X105432082Y-104443297D01*
X105432082Y-104443297D02*
X105441606Y-104452821D01*
X105613035Y-104500440D02*
X105613035Y-104633773D01*
X105527321Y-104500440D02*
X105527321Y-104605202D01*
X105527321Y-104605202D02*
X105536844Y-104624250D01*
X105536844Y-104624250D02*
X105555892Y-104633773D01*
X105555892Y-104633773D02*
X105584463Y-104633773D01*
X105584463Y-104633773D02*
X105603511Y-104624250D01*
X105603511Y-104624250D02*
X105613035Y-104614726D01*
X105832082Y-104500440D02*
X105908273Y-104500440D01*
X105860654Y-104433773D02*
X105860654Y-104605202D01*
X105860654Y-104605202D02*
X105870177Y-104624250D01*
X105870177Y-104624250D02*
X105889225Y-104633773D01*
X105889225Y-104633773D02*
X105908273Y-104633773D01*
X105974940Y-104633773D02*
X105974940Y-104500440D01*
X105974940Y-104538535D02*
X105984463Y-104519488D01*
X105984463Y-104519488D02*
X105993987Y-104509964D01*
X105993987Y-104509964D02*
X106013035Y-104500440D01*
X106013035Y-104500440D02*
X106032082Y-104500440D01*
X106184464Y-104633773D02*
X106184464Y-104529011D01*
X106184464Y-104529011D02*
X106174940Y-104509964D01*
X106174940Y-104509964D02*
X106155892Y-104500440D01*
X106155892Y-104500440D02*
X106117797Y-104500440D01*
X106117797Y-104500440D02*
X106098750Y-104509964D01*
X106184464Y-104624250D02*
X106165416Y-104633773D01*
X106165416Y-104633773D02*
X106117797Y-104633773D01*
X106117797Y-104633773D02*
X106098750Y-104624250D01*
X106098750Y-104624250D02*
X106089226Y-104605202D01*
X106089226Y-104605202D02*
X106089226Y-104586154D01*
X106089226Y-104586154D02*
X106098750Y-104567107D01*
X106098750Y-104567107D02*
X106117797Y-104557583D01*
X106117797Y-104557583D02*
X106165416Y-104557583D01*
X106165416Y-104557583D02*
X106184464Y-104548059D01*
X106365416Y-104624250D02*
X106346368Y-104633773D01*
X106346368Y-104633773D02*
X106308273Y-104633773D01*
X106308273Y-104633773D02*
X106289225Y-104624250D01*
X106289225Y-104624250D02*
X106279702Y-104614726D01*
X106279702Y-104614726D02*
X106270178Y-104595678D01*
X106270178Y-104595678D02*
X106270178Y-104538535D01*
X106270178Y-104538535D02*
X106279702Y-104519488D01*
X106279702Y-104519488D02*
X106289225Y-104509964D01*
X106289225Y-104509964D02*
X106308273Y-104500440D01*
X106308273Y-104500440D02*
X106346368Y-104500440D01*
X106346368Y-104500440D02*
X106365416Y-104509964D01*
X106451131Y-104633773D02*
X106451131Y-104433773D01*
X106470178Y-104557583D02*
X106527321Y-104633773D01*
X106527321Y-104500440D02*
X106451131Y-104576630D01*
X106603512Y-104624250D02*
X106622559Y-104633773D01*
X106622559Y-104633773D02*
X106660655Y-104633773D01*
X106660655Y-104633773D02*
X106679702Y-104624250D01*
X106679702Y-104624250D02*
X106689226Y-104605202D01*
X106689226Y-104605202D02*
X106689226Y-104595678D01*
X106689226Y-104595678D02*
X106679702Y-104576630D01*
X106679702Y-104576630D02*
X106660655Y-104567107D01*
X106660655Y-104567107D02*
X106632083Y-104567107D01*
X106632083Y-104567107D02*
X106613036Y-104557583D01*
X106613036Y-104557583D02*
X106603512Y-104538535D01*
X106603512Y-104538535D02*
X106603512Y-104529011D01*
X106603512Y-104529011D02*
X106613036Y-104509964D01*
X106613036Y-104509964D02*
X106632083Y-104500440D01*
X106632083Y-104500440D02*
X106660655Y-104500440D01*
X106660655Y-104500440D02*
X106679702Y-104509964D01*
X104384465Y-104233773D02*
X104384465Y-104033773D01*
X104498750Y-104233773D02*
X104413036Y-104119488D01*
X104498750Y-104033773D02*
X104384465Y-104148059D01*
X104584465Y-104129011D02*
X104651131Y-104129011D01*
X104679703Y-104233773D02*
X104584465Y-104233773D01*
X104584465Y-104233773D02*
X104584465Y-104033773D01*
X104584465Y-104033773D02*
X104679703Y-104033773D01*
X104765417Y-104129011D02*
X104832083Y-104129011D01*
X104860655Y-104233773D02*
X104765417Y-104233773D01*
X104765417Y-104233773D02*
X104765417Y-104033773D01*
X104765417Y-104033773D02*
X104860655Y-104033773D01*
X104946369Y-104233773D02*
X104946369Y-104033773D01*
X104946369Y-104033773D02*
X105022559Y-104033773D01*
X105022559Y-104033773D02*
X105041607Y-104043297D01*
X105041607Y-104043297D02*
X105051130Y-104052821D01*
X105051130Y-104052821D02*
X105060654Y-104071869D01*
X105060654Y-104071869D02*
X105060654Y-104100440D01*
X105060654Y-104100440D02*
X105051130Y-104119488D01*
X105051130Y-104119488D02*
X105041607Y-104129011D01*
X105041607Y-104129011D02*
X105022559Y-104138535D01*
X105022559Y-104138535D02*
X104946369Y-104138535D01*
X105146369Y-104157583D02*
X105298750Y-104157583D01*
X105432083Y-104033773D02*
X105470178Y-104033773D01*
X105470178Y-104033773D02*
X105489226Y-104043297D01*
X105489226Y-104043297D02*
X105508273Y-104062345D01*
X105508273Y-104062345D02*
X105517797Y-104100440D01*
X105517797Y-104100440D02*
X105517797Y-104167107D01*
X105517797Y-104167107D02*
X105508273Y-104205202D01*
X105508273Y-104205202D02*
X105489226Y-104224250D01*
X105489226Y-104224250D02*
X105470178Y-104233773D01*
X105470178Y-104233773D02*
X105432083Y-104233773D01*
X105432083Y-104233773D02*
X105413035Y-104224250D01*
X105413035Y-104224250D02*
X105393988Y-104205202D01*
X105393988Y-104205202D02*
X105384464Y-104167107D01*
X105384464Y-104167107D02*
X105384464Y-104100440D01*
X105384464Y-104100440D02*
X105393988Y-104062345D01*
X105393988Y-104062345D02*
X105413035Y-104043297D01*
X105413035Y-104043297D02*
X105432083Y-104033773D01*
X105603512Y-104033773D02*
X105603512Y-104195678D01*
X105603512Y-104195678D02*
X105613035Y-104214726D01*
X105613035Y-104214726D02*
X105622559Y-104224250D01*
X105622559Y-104224250D02*
X105641607Y-104233773D01*
X105641607Y-104233773D02*
X105679702Y-104233773D01*
X105679702Y-104233773D02*
X105698750Y-104224250D01*
X105698750Y-104224250D02*
X105708273Y-104214726D01*
X105708273Y-104214726D02*
X105717797Y-104195678D01*
X105717797Y-104195678D02*
X105717797Y-104033773D01*
X105784464Y-104033773D02*
X105898750Y-104033773D01*
X105841607Y-104233773D02*
X105841607Y-104033773D01*
X106098750Y-104033773D02*
X106232083Y-104033773D01*
X106232083Y-104033773D02*
X106098750Y-104233773D01*
X106098750Y-104233773D02*
X106232083Y-104233773D01*
X106346369Y-104033773D02*
X106384464Y-104033773D01*
X106384464Y-104033773D02*
X106403512Y-104043297D01*
X106403512Y-104043297D02*
X106422559Y-104062345D01*
X106422559Y-104062345D02*
X106432083Y-104100440D01*
X106432083Y-104100440D02*
X106432083Y-104167107D01*
X106432083Y-104167107D02*
X106422559Y-104205202D01*
X106422559Y-104205202D02*
X106403512Y-104224250D01*
X106403512Y-104224250D02*
X106384464Y-104233773D01*
X106384464Y-104233773D02*
X106346369Y-104233773D01*
X106346369Y-104233773D02*
X106327321Y-104224250D01*
X106327321Y-104224250D02*
X106308274Y-104205202D01*
X106308274Y-104205202D02*
X106298750Y-104167107D01*
X106298750Y-104167107D02*
X106298750Y-104100440D01*
X106298750Y-104100440D02*
X106308274Y-104062345D01*
X106308274Y-104062345D02*
X106327321Y-104043297D01*
X106327321Y-104043297D02*
X106346369Y-104033773D01*
X106517798Y-104233773D02*
X106517798Y-104033773D01*
X106517798Y-104033773D02*
X106632083Y-104233773D01*
X106632083Y-104233773D02*
X106632083Y-104033773D01*
X106727322Y-104129011D02*
X106793988Y-104129011D01*
X106822560Y-104233773D02*
X106727322Y-104233773D01*
X106727322Y-104233773D02*
X106727322Y-104033773D01*
X106727322Y-104033773D02*
X106822560Y-104033773D01*
X99517797Y-104633773D02*
X99517797Y-104433773D01*
X99517797Y-104433773D02*
X99632082Y-104633773D01*
X99632082Y-104633773D02*
X99632082Y-104433773D01*
X99755892Y-104633773D02*
X99736844Y-104624250D01*
X99736844Y-104624250D02*
X99727321Y-104614726D01*
X99727321Y-104614726D02*
X99717797Y-104595678D01*
X99717797Y-104595678D02*
X99717797Y-104538535D01*
X99717797Y-104538535D02*
X99727321Y-104519488D01*
X99727321Y-104519488D02*
X99736844Y-104509964D01*
X99736844Y-104509964D02*
X99755892Y-104500440D01*
X99755892Y-104500440D02*
X99784463Y-104500440D01*
X99784463Y-104500440D02*
X99803511Y-104509964D01*
X99803511Y-104509964D02*
X99813035Y-104519488D01*
X99813035Y-104519488D02*
X99822559Y-104538535D01*
X99822559Y-104538535D02*
X99822559Y-104595678D01*
X99822559Y-104595678D02*
X99813035Y-104614726D01*
X99813035Y-104614726D02*
X99803511Y-104624250D01*
X99803511Y-104624250D02*
X99784463Y-104633773D01*
X99784463Y-104633773D02*
X99755892Y-104633773D01*
X100127320Y-104529011D02*
X100060654Y-104529011D01*
X100060654Y-104633773D02*
X100060654Y-104433773D01*
X100060654Y-104433773D02*
X100155892Y-104433773D01*
X100232083Y-104614726D02*
X100241606Y-104624250D01*
X100241606Y-104624250D02*
X100232083Y-104633773D01*
X100232083Y-104633773D02*
X100222559Y-104624250D01*
X100222559Y-104624250D02*
X100232083Y-104614726D01*
X100232083Y-104614726D02*
X100232083Y-104633773D01*
X100441606Y-104614726D02*
X100432082Y-104624250D01*
X100432082Y-104624250D02*
X100403511Y-104633773D01*
X100403511Y-104633773D02*
X100384463Y-104633773D01*
X100384463Y-104633773D02*
X100355892Y-104624250D01*
X100355892Y-104624250D02*
X100336844Y-104605202D01*
X100336844Y-104605202D02*
X100327321Y-104586154D01*
X100327321Y-104586154D02*
X100317797Y-104548059D01*
X100317797Y-104548059D02*
X100317797Y-104519488D01*
X100317797Y-104519488D02*
X100327321Y-104481392D01*
X100327321Y-104481392D02*
X100336844Y-104462345D01*
X100336844Y-104462345D02*
X100355892Y-104443297D01*
X100355892Y-104443297D02*
X100384463Y-104433773D01*
X100384463Y-104433773D02*
X100403511Y-104433773D01*
X100403511Y-104433773D02*
X100432082Y-104443297D01*
X100432082Y-104443297D02*
X100441606Y-104452821D01*
X100613035Y-104500440D02*
X100613035Y-104633773D01*
X100527321Y-104500440D02*
X100527321Y-104605202D01*
X100527321Y-104605202D02*
X100536844Y-104624250D01*
X100536844Y-104624250D02*
X100555892Y-104633773D01*
X100555892Y-104633773D02*
X100584463Y-104633773D01*
X100584463Y-104633773D02*
X100603511Y-104624250D01*
X100603511Y-104624250D02*
X100613035Y-104614726D01*
X100832082Y-104500440D02*
X100908273Y-104500440D01*
X100860654Y-104433773D02*
X100860654Y-104605202D01*
X100860654Y-104605202D02*
X100870177Y-104624250D01*
X100870177Y-104624250D02*
X100889225Y-104633773D01*
X100889225Y-104633773D02*
X100908273Y-104633773D01*
X100974940Y-104633773D02*
X100974940Y-104500440D01*
X100974940Y-104538535D02*
X100984463Y-104519488D01*
X100984463Y-104519488D02*
X100993987Y-104509964D01*
X100993987Y-104509964D02*
X101013035Y-104500440D01*
X101013035Y-104500440D02*
X101032082Y-104500440D01*
X101184464Y-104633773D02*
X101184464Y-104529011D01*
X101184464Y-104529011D02*
X101174940Y-104509964D01*
X101174940Y-104509964D02*
X101155892Y-104500440D01*
X101155892Y-104500440D02*
X101117797Y-104500440D01*
X101117797Y-104500440D02*
X101098750Y-104509964D01*
X101184464Y-104624250D02*
X101165416Y-104633773D01*
X101165416Y-104633773D02*
X101117797Y-104633773D01*
X101117797Y-104633773D02*
X101098750Y-104624250D01*
X101098750Y-104624250D02*
X101089226Y-104605202D01*
X101089226Y-104605202D02*
X101089226Y-104586154D01*
X101089226Y-104586154D02*
X101098750Y-104567107D01*
X101098750Y-104567107D02*
X101117797Y-104557583D01*
X101117797Y-104557583D02*
X101165416Y-104557583D01*
X101165416Y-104557583D02*
X101184464Y-104548059D01*
X101365416Y-104624250D02*
X101346368Y-104633773D01*
X101346368Y-104633773D02*
X101308273Y-104633773D01*
X101308273Y-104633773D02*
X101289225Y-104624250D01*
X101289225Y-104624250D02*
X101279702Y-104614726D01*
X101279702Y-104614726D02*
X101270178Y-104595678D01*
X101270178Y-104595678D02*
X101270178Y-104538535D01*
X101270178Y-104538535D02*
X101279702Y-104519488D01*
X101279702Y-104519488D02*
X101289225Y-104509964D01*
X101289225Y-104509964D02*
X101308273Y-104500440D01*
X101308273Y-104500440D02*
X101346368Y-104500440D01*
X101346368Y-104500440D02*
X101365416Y-104509964D01*
X101451131Y-104633773D02*
X101451131Y-104433773D01*
X101470178Y-104557583D02*
X101527321Y-104633773D01*
X101527321Y-104500440D02*
X101451131Y-104576630D01*
X101603512Y-104624250D02*
X101622559Y-104633773D01*
X101622559Y-104633773D02*
X101660655Y-104633773D01*
X101660655Y-104633773D02*
X101679702Y-104624250D01*
X101679702Y-104624250D02*
X101689226Y-104605202D01*
X101689226Y-104605202D02*
X101689226Y-104595678D01*
X101689226Y-104595678D02*
X101679702Y-104576630D01*
X101679702Y-104576630D02*
X101660655Y-104567107D01*
X101660655Y-104567107D02*
X101632083Y-104567107D01*
X101632083Y-104567107D02*
X101613036Y-104557583D01*
X101613036Y-104557583D02*
X101603512Y-104538535D01*
X101603512Y-104538535D02*
X101603512Y-104529011D01*
X101603512Y-104529011D02*
X101613036Y-104509964D01*
X101613036Y-104509964D02*
X101632083Y-104500440D01*
X101632083Y-104500440D02*
X101660655Y-104500440D01*
X101660655Y-104500440D02*
X101679702Y-104509964D01*
X99384465Y-104233773D02*
X99384465Y-104033773D01*
X99498750Y-104233773D02*
X99413036Y-104119488D01*
X99498750Y-104033773D02*
X99384465Y-104148059D01*
X99584465Y-104129011D02*
X99651131Y-104129011D01*
X99679703Y-104233773D02*
X99584465Y-104233773D01*
X99584465Y-104233773D02*
X99584465Y-104033773D01*
X99584465Y-104033773D02*
X99679703Y-104033773D01*
X99765417Y-104129011D02*
X99832083Y-104129011D01*
X99860655Y-104233773D02*
X99765417Y-104233773D01*
X99765417Y-104233773D02*
X99765417Y-104033773D01*
X99765417Y-104033773D02*
X99860655Y-104033773D01*
X99946369Y-104233773D02*
X99946369Y-104033773D01*
X99946369Y-104033773D02*
X100022559Y-104033773D01*
X100022559Y-104033773D02*
X100041607Y-104043297D01*
X100041607Y-104043297D02*
X100051130Y-104052821D01*
X100051130Y-104052821D02*
X100060654Y-104071869D01*
X100060654Y-104071869D02*
X100060654Y-104100440D01*
X100060654Y-104100440D02*
X100051130Y-104119488D01*
X100051130Y-104119488D02*
X100041607Y-104129011D01*
X100041607Y-104129011D02*
X100022559Y-104138535D01*
X100022559Y-104138535D02*
X99946369Y-104138535D01*
X100146369Y-104157583D02*
X100298750Y-104157583D01*
X100432083Y-104033773D02*
X100470178Y-104033773D01*
X100470178Y-104033773D02*
X100489226Y-104043297D01*
X100489226Y-104043297D02*
X100508273Y-104062345D01*
X100508273Y-104062345D02*
X100517797Y-104100440D01*
X100517797Y-104100440D02*
X100517797Y-104167107D01*
X100517797Y-104167107D02*
X100508273Y-104205202D01*
X100508273Y-104205202D02*
X100489226Y-104224250D01*
X100489226Y-104224250D02*
X100470178Y-104233773D01*
X100470178Y-104233773D02*
X100432083Y-104233773D01*
X100432083Y-104233773D02*
X100413035Y-104224250D01*
X100413035Y-104224250D02*
X100393988Y-104205202D01*
X100393988Y-104205202D02*
X100384464Y-104167107D01*
X100384464Y-104167107D02*
X100384464Y-104100440D01*
X100384464Y-104100440D02*
X100393988Y-104062345D01*
X100393988Y-104062345D02*
X100413035Y-104043297D01*
X100413035Y-104043297D02*
X100432083Y-104033773D01*
X100603512Y-104033773D02*
X100603512Y-104195678D01*
X100603512Y-104195678D02*
X100613035Y-104214726D01*
X100613035Y-104214726D02*
X100622559Y-104224250D01*
X100622559Y-104224250D02*
X100641607Y-104233773D01*
X100641607Y-104233773D02*
X100679702Y-104233773D01*
X100679702Y-104233773D02*
X100698750Y-104224250D01*
X100698750Y-104224250D02*
X100708273Y-104214726D01*
X100708273Y-104214726D02*
X100717797Y-104195678D01*
X100717797Y-104195678D02*
X100717797Y-104033773D01*
X100784464Y-104033773D02*
X100898750Y-104033773D01*
X100841607Y-104233773D02*
X100841607Y-104033773D01*
X101098750Y-104033773D02*
X101232083Y-104033773D01*
X101232083Y-104033773D02*
X101098750Y-104233773D01*
X101098750Y-104233773D02*
X101232083Y-104233773D01*
X101346369Y-104033773D02*
X101384464Y-104033773D01*
X101384464Y-104033773D02*
X101403512Y-104043297D01*
X101403512Y-104043297D02*
X101422559Y-104062345D01*
X101422559Y-104062345D02*
X101432083Y-104100440D01*
X101432083Y-104100440D02*
X101432083Y-104167107D01*
X101432083Y-104167107D02*
X101422559Y-104205202D01*
X101422559Y-104205202D02*
X101403512Y-104224250D01*
X101403512Y-104224250D02*
X101384464Y-104233773D01*
X101384464Y-104233773D02*
X101346369Y-104233773D01*
X101346369Y-104233773D02*
X101327321Y-104224250D01*
X101327321Y-104224250D02*
X101308274Y-104205202D01*
X101308274Y-104205202D02*
X101298750Y-104167107D01*
X101298750Y-104167107D02*
X101298750Y-104100440D01*
X101298750Y-104100440D02*
X101308274Y-104062345D01*
X101308274Y-104062345D02*
X101327321Y-104043297D01*
X101327321Y-104043297D02*
X101346369Y-104033773D01*
X101517798Y-104233773D02*
X101517798Y-104033773D01*
X101517798Y-104033773D02*
X101632083Y-104233773D01*
X101632083Y-104233773D02*
X101632083Y-104033773D01*
X101727322Y-104129011D02*
X101793988Y-104129011D01*
X101822560Y-104233773D02*
X101727322Y-104233773D01*
X101727322Y-104233773D02*
X101727322Y-104033773D01*
X101727322Y-104033773D02*
X101822560Y-104033773D01*
D12*
%TO.C,D65*%
X34232500Y-66496250D02*
X34482500Y-66246250D01*
X34482500Y-66246250D02*
X34232500Y-65996250D01*
X34482500Y-66246250D02*
X34732500Y-65996250D01*
X34732500Y-66496250D02*
X34482500Y-66246250D01*
%TO.C,D64*%
X29470000Y-66496250D02*
X29720000Y-66246250D01*
X29720000Y-66246250D02*
X29470000Y-65996250D01*
X29720000Y-66246250D02*
X29970000Y-65996250D01*
X29970000Y-66496250D02*
X29720000Y-66246250D01*
%TD*%
M02*
