M48
; DRILL file {KiCad 7.0.1} date Fri Mar 31 22:15:08 2023
; FORMAT={-:-/ absolute / inch / decimal}
; #@! TF.CreationDate,2023-03-31T22:15:08-04:00
; #@! TF.GenerationSoftware,Kicad,Pcbnew,7.0.1
; #@! TF.FileFunction,NonPlated,1,4,NPTH
FMAT,2
INCH
; #@! TA.AperFunction,NonPlated,NPTH,ComponentDrill
T1C0.0689
; #@! TA.AperFunction,NonPlated,NPTH,ComponentDrill
T2C0.1570
%
G90
G05
T1
X0.8763Y-1.1081
X0.9701Y-2.6081
X0.9701Y-4.1081
X1.0638Y-1.8581
X1.0638Y-4.1081
X1.1576Y-2.6081
X1.2763Y-1.1081
X1.3451Y-3.3581
X1.3701Y-2.6081
X1.3701Y-4.1081
X1.4638Y-1.8581
X1.4638Y-4.1081
X1.5576Y-2.6081
X1.6263Y-1.1081
X1.7451Y-3.3581
X1.9076Y-4.1081
X2.0013Y-1.8581
X2.0013Y-4.1081
X2.0263Y-1.1081
X2.1888Y-2.6081
X2.3076Y-4.1081
X2.3763Y-1.1081
X2.4013Y-1.8581
X2.4013Y-4.1081
X2.5638Y-3.3581
X2.5888Y-2.6081
X2.7513Y-1.8581
X2.7763Y-1.1081
X2.8451Y-4.1081
X2.9388Y-2.6081
X2.9388Y-4.1081
X2.9638Y-3.3581
X3.1263Y-1.1081
X3.1513Y-1.8581
X3.2451Y-4.1081
X3.3138Y-3.3581
X3.3388Y-2.6081
X3.3388Y-4.1081
X3.5013Y-1.8581
X3.5263Y-1.1081
X3.6888Y-2.6081
X3.7138Y-3.3581
X3.8763Y-1.1081
X3.9013Y-1.8581
X4.0638Y-3.3581
X4.0888Y-2.6081
X4.2513Y-1.8581
X4.2763Y-1.1081
X4.4388Y-2.6081
X4.4638Y-3.3581
X4.6263Y-1.1081
X4.6513Y-1.8581
X4.8138Y-3.3581
X4.8388Y-2.6081
X5.0013Y-1.8581
X5.0263Y-1.1081
X5.1888Y-2.6081
X5.2138Y-3.3581
X5.3763Y-1.1081
X5.4013Y-1.8581
X5.5638Y-3.3581
X5.5888Y-2.6081
X5.6576Y-4.1081
X5.7513Y-1.8581
X5.7763Y-1.1081
X5.9388Y-2.6081
X5.9638Y-3.3581
X6.0576Y-4.1081
X6.1263Y-1.1081
X6.1263Y-4.1081
X6.1513Y-1.8581
X6.3138Y-3.3581
X6.3388Y-2.6081
X6.5013Y-1.8581
X6.5263Y-1.1081
X6.5263Y-4.1081
X6.6888Y-2.6081
X6.7138Y-3.3581
X6.8763Y-1.1081
X6.9013Y-1.8581
X7.0638Y-3.3581
X7.0888Y-2.6081
X7.2513Y-1.8581
X7.2763Y-1.1081
X7.4388Y-2.6081
X7.4638Y-3.3581
X7.6263Y-1.1081
X7.6513Y-1.8581
X7.8138Y-3.3581
X7.8388Y-2.6081
X8.0013Y-1.8581
X8.0263Y-1.1081
X8.1888Y-2.6081
X8.2138Y-3.3581
X8.3763Y-1.1081
X8.4013Y-1.8581
X8.4701Y-4.1081
X8.5638Y-3.3581
X8.5888Y-2.6081
X8.7513Y-1.8581
X8.7763Y-1.1081
X8.8701Y-4.1081
X8.9388Y-2.6081
X8.9638Y-3.3581
X9.1263Y-1.1081
X9.1513Y-1.8581
X9.3138Y-3.3581
X9.3138Y-4.1081
X9.3388Y-2.6081
X9.4076Y-4.1081
X9.5013Y-1.8581
X9.5263Y-1.1081
X9.6888Y-2.6081
X9.7138Y-3.3581
X9.7138Y-4.1081
X9.8076Y-4.1081
X9.8763Y-1.1081
X9.9013Y-1.8581
X10.0888Y-2.6081
X10.2513Y-1.8581
X10.2513Y-4.1081
X10.2763Y-1.1081
X10.3433Y-3.3581
X10.3451Y-4.1081
X10.6263Y-1.1081
X10.6513Y-1.8581
X10.6513Y-4.1081
X10.7201Y-3.3581
X10.7433Y-3.3581
X10.7451Y-4.1081
X10.9076Y-2.6081
X11.0013Y-1.1081
X11.0263Y-1.1081
X11.1201Y-3.3581
X11.1888Y-1.8581
X11.1888Y-4.1081
X11.2826Y-4.1081
X11.3076Y-2.6081
X11.3763Y-1.1081
X11.3763Y-3.3581
X11.4013Y-1.1081
X11.5888Y-1.8581
X11.5888Y-4.1081
X11.6826Y-4.1081
X11.7763Y-1.1081
X11.7763Y-3.3581
T2
X1.0763Y-1.1081
X1.0763Y-3.6831
X1.1701Y-2.6081
X1.1701Y-4.1081
X1.2638Y-1.8581
X1.2638Y-4.1081
X1.3576Y-2.6081
X1.5451Y-3.3581
X1.8263Y-1.1081
X2.0138Y-3.6831
X2.1076Y-4.1081
X2.2013Y-1.8581
X2.2013Y-4.1081
X2.3888Y-2.6081
X2.5763Y-1.1081
X2.7638Y-3.3581
X2.9513Y-1.8581
X3.0451Y-4.1081
X3.1388Y-2.6081
X3.1388Y-4.1081
X3.3263Y-1.1081
X3.5138Y-3.3581
X3.7013Y-1.8581
X3.8888Y-2.6081
X3.8888Y-3.7831
X4.0763Y-1.1081
X4.0763Y-3.7831
X4.2638Y-3.3581
X4.4513Y-1.8581
X4.6388Y-2.6081
X4.8263Y-1.1081
X5.0138Y-3.3581
X5.2013Y-1.8581
X5.3888Y-2.6081
X5.5763Y-1.1081
X5.7638Y-3.3581
X5.8576Y-4.1081
X5.9513Y-1.8581
X6.1388Y-2.6081
X6.3263Y-1.1081
X6.3263Y-4.1081
X6.5138Y-3.3581
X6.7013Y-1.8581
X6.8888Y-2.6081
X7.0763Y-1.1081
X7.2638Y-3.3581
X7.4513Y-1.8581
X7.6388Y-2.6081
X7.8263Y-1.1081
X7.8263Y-3.7831
X8.0138Y-3.3581
X8.2013Y-1.8581
X8.3888Y-2.6081
X8.5763Y-1.1081
X8.5763Y-3.7831
X8.6701Y-4.1081
X8.7638Y-3.3581
X8.9513Y-1.8581
X9.1388Y-2.6081
X9.3263Y-1.1081
X9.5138Y-3.3581
X9.5138Y-4.1081
X9.6076Y-4.1081
X9.7013Y-1.8581
X9.8888Y-2.6081
X10.0763Y-1.1081
X10.4513Y-1.8581
X10.4513Y-3.6831
X10.4513Y-4.1081
X10.5433Y-3.3581
X10.5451Y-4.1081
X10.6388Y-2.9331
X10.7326Y-1.4331
X10.8263Y-1.1081
X10.9201Y-3.3581
X11.1076Y-2.6081
X11.2013Y-1.1081
X11.3888Y-1.8581
X11.3888Y-3.6831
X11.3888Y-4.1081
X11.4826Y-4.1081
X11.5763Y-1.1081
X11.5763Y-2.9331
X11.5763Y-3.3581
X11.6701Y-1.4331
T0
M30
