%TF.GenerationSoftware,KiCad,Pcbnew,7.0.1*%
%TF.CreationDate,2023-03-31T22:15:08-04:00*%
%TF.ProjectId,PCB,5043422e-6b69-4636-9164-5f7063625858,rev?*%
%TF.SameCoordinates,Original*%
%TF.FileFunction,Profile,NP*%
%FSLAX46Y46*%
G04 Gerber Fmt 4.6, Leading zero omitted, Abs format (unit mm)*
G04 Created by KiCad (PCBNEW 7.0.1) date 2023-03-31 22:15:08*
%MOMM*%
%LPD*%
G01*
G04 APERTURE LIST*
%ADD10C,0.350000*%
G04 APERTURE END LIST*
D10*
X109991864Y-113346236D02*
X110333176Y-113233457D01*
X110536989Y-112946407D01*
X110562867Y-112776891D01*
X287846878Y-19146301D02*
X287846856Y-19146258D01*
X20337883Y-19146258D02*
X19934875Y-19187009D01*
X19559516Y-19303614D01*
X19219839Y-19488039D01*
X18923878Y-19732250D01*
X18679668Y-20028210D01*
X18495241Y-20367886D01*
X18378633Y-20743242D01*
X18337876Y-21146244D01*
X117262867Y-111021249D02*
X117662476Y-111045664D01*
X118049665Y-111117452D01*
X118421034Y-111234074D01*
X118773187Y-111392996D01*
X119102723Y-111591681D01*
X119406246Y-111827594D01*
X119680356Y-112098198D01*
X119921656Y-112400958D01*
X120126746Y-112733337D01*
X120292230Y-113092800D01*
X120378870Y-113346236D01*
X269507881Y-19146258D02*
X269384503Y-19160275D01*
X27296869Y-113346236D02*
X27434059Y-112970126D01*
X27613124Y-112619409D01*
X27830664Y-112296621D01*
X28083280Y-112004299D01*
X28367573Y-111744976D01*
X28680146Y-111521191D01*
X29017600Y-111335479D01*
X29376535Y-111190375D01*
X29753553Y-111088416D01*
X30145256Y-111032137D01*
X30412871Y-111021249D01*
X301037869Y-113346236D02*
X301440876Y-113305484D01*
X301816235Y-113188879D01*
X302155912Y-113004454D01*
X302451873Y-112760243D01*
X302696083Y-112464283D01*
X302880510Y-112124607D01*
X302997118Y-111749251D01*
X303037876Y-111346250D01*
X73333873Y-113346236D02*
X74323176Y-113346236D01*
X204112863Y-111021249D02*
X204380870Y-111021249D01*
X286859858Y-110753242D02*
X287156243Y-110951404D01*
X287505856Y-111021249D01*
X300787862Y-19146258D02*
X294078862Y-19146258D01*
X29338432Y-21336693D02*
X28853233Y-21441741D01*
X28370221Y-21471834D01*
X27896251Y-21430686D01*
X27438181Y-21322015D01*
X27002866Y-21149535D01*
X26597163Y-20916962D01*
X26227929Y-20628014D01*
X25902020Y-20286405D01*
X25626292Y-19895852D01*
X25407602Y-19460070D01*
X25296883Y-19146258D01*
X294078862Y-19146258D02*
X293938107Y-19530003D01*
X293752735Y-19888940D01*
X293526049Y-20219765D01*
X293261348Y-20519179D01*
X292961934Y-20783880D01*
X292631109Y-21010566D01*
X292272172Y-21195938D01*
X291888427Y-21336693D01*
X204366874Y-21471245D02*
X204112863Y-21471245D01*
X280415871Y-113346236D02*
X280757199Y-113233440D01*
X280961006Y-112946356D01*
X280986875Y-112776826D01*
X280986875Y-112776826D02*
X280986875Y-112775254D01*
X79921865Y-19715582D02*
X79921865Y-19717240D01*
X72549770Y-111895033D02*
X72661118Y-112249940D01*
X72747507Y-112616759D01*
X72777878Y-112790241D01*
X268936856Y-19717240D02*
X268840253Y-20120314D01*
X268699821Y-20503812D01*
X268518356Y-20864935D01*
X268298657Y-21200884D01*
X268043523Y-21508861D01*
X267755752Y-21786067D01*
X267438143Y-22029703D01*
X267093494Y-22236971D01*
X266724604Y-22405072D01*
X266334270Y-22531206D01*
X266063518Y-22590600D01*
X56565517Y-22590600D02*
X56204430Y-22636599D01*
X55847418Y-22645781D01*
X55496557Y-22619589D01*
X54986335Y-22517135D01*
X54501619Y-22343215D01*
X54049411Y-22102702D01*
X53636711Y-21800471D01*
X53270520Y-21441397D01*
X52957839Y-21030354D01*
X52705670Y-20572217D01*
X52574632Y-20243035D01*
X52475674Y-19896534D01*
X52438874Y-19717240D01*
X303037876Y-21396250D02*
X303037876Y-21146244D01*
X240884520Y-19146258D02*
X240882884Y-19146258D01*
X117036869Y-21471245D02*
X116678607Y-21556642D01*
X116472864Y-21705232D01*
X248041879Y-113346236D02*
X248374410Y-113235626D01*
X248580269Y-112929138D01*
X248597874Y-112790241D01*
X210812863Y-19717240D02*
X210724455Y-20092310D01*
X210596690Y-20453888D01*
X210431077Y-20798968D01*
X210229126Y-21124545D01*
X209992347Y-21427614D01*
X209905942Y-21523116D01*
X142277275Y-19146258D02*
X120378870Y-19146258D01*
X143606996Y-19952863D02*
X143403141Y-19655465D01*
X143139372Y-19419020D01*
X142828734Y-19251439D01*
X142484274Y-19160632D01*
X142277275Y-19146258D01*
X110562867Y-112776891D02*
X110562867Y-112775254D01*
X25296883Y-19146258D02*
X20587868Y-19146258D01*
X291888427Y-21336693D02*
X291403229Y-21441741D01*
X290920221Y-21471832D01*
X290446257Y-21430684D01*
X289988193Y-21322011D01*
X289552883Y-21149532D01*
X289147185Y-20916961D01*
X288777953Y-20628017D01*
X288452042Y-20286414D01*
X288176309Y-19895871D01*
X287957608Y-19460102D01*
X287846878Y-19146301D01*
X20337883Y-113346236D02*
X20587437Y-113346236D01*
X109993867Y-19146301D02*
X80492222Y-19146323D01*
X20587868Y-19146258D02*
X20337883Y-19146258D01*
X62303862Y-113346236D02*
X62636394Y-113235626D01*
X62842265Y-112929138D01*
X62859879Y-112790241D01*
X210812863Y-19715603D02*
X210812863Y-19717240D01*
X60009859Y-19146258D02*
X59947072Y-19152502D01*
X303037876Y-111346250D02*
X303037876Y-111096244D01*
X18337876Y-111346250D02*
X18378633Y-111749251D01*
X18495241Y-112124607D01*
X18679668Y-112464283D01*
X18923878Y-112760243D01*
X19219839Y-113004454D01*
X19559516Y-113188879D01*
X19934875Y-113305484D01*
X20337883Y-113346236D01*
X80492222Y-19146323D02*
X80151287Y-19259272D01*
X79947719Y-19546181D01*
X79921865Y-19715582D01*
X36262428Y-109901743D02*
X36623513Y-109855759D01*
X36980521Y-109846592D01*
X37331376Y-109872799D01*
X37841586Y-109975273D01*
X38326286Y-110149213D01*
X38778476Y-110389743D01*
X39191154Y-110691988D01*
X39557322Y-111051075D01*
X39869977Y-111462127D01*
X40122121Y-111920272D01*
X40253142Y-112249456D01*
X40352084Y-112595959D01*
X40388877Y-112775254D01*
X120378870Y-19146280D02*
X120241673Y-19522388D01*
X120062606Y-19873102D01*
X119845065Y-20195886D01*
X119592449Y-20488204D01*
X119308156Y-20747521D01*
X118995584Y-20971302D01*
X118658133Y-21157011D01*
X118299200Y-21302113D01*
X117922183Y-21404072D01*
X117530481Y-21460353D01*
X117262867Y-21471245D01*
X69432863Y-19146258D02*
X60009859Y-19146258D01*
X143607297Y-19952690D02*
X143606996Y-19952863D01*
X204869880Y-110818246D02*
X205166041Y-110567298D01*
X205486162Y-110351114D01*
X205827173Y-110171243D01*
X206186005Y-110029234D01*
X206559590Y-109926636D01*
X206686866Y-109901463D01*
X31528867Y-19146258D02*
X31388113Y-19530003D01*
X31202744Y-19888940D01*
X30976060Y-20219765D01*
X30711362Y-20519179D01*
X30411949Y-20783880D01*
X30081123Y-21010566D01*
X29722184Y-21195938D01*
X29338432Y-21336693D01*
X51867871Y-19146258D02*
X51789775Y-19146258D01*
X211382251Y-113346236D02*
X211383866Y-113346236D01*
X240882884Y-19146258D02*
X211383866Y-19146258D01*
X204380870Y-111021249D02*
X204721211Y-110931024D01*
X204869880Y-110818246D01*
X79921865Y-19717240D02*
X79843263Y-20116402D01*
X79734132Y-20503354D01*
X79595780Y-20876786D01*
X79429514Y-21235391D01*
X79236643Y-21577858D01*
X79018476Y-21902881D01*
X78776322Y-22209149D01*
X78511488Y-22495356D01*
X78225283Y-22760191D01*
X77919017Y-23002348D01*
X77593996Y-23220517D01*
X77251530Y-23413389D01*
X76892927Y-23579656D01*
X76519496Y-23718010D01*
X76132544Y-23827142D01*
X75733382Y-23905744D01*
X111480877Y-110957644D02*
X111744173Y-110706249D01*
X112026048Y-110486907D01*
X112323972Y-110299685D01*
X112795426Y-110079231D01*
X113288781Y-109931438D01*
X113795507Y-109856538D01*
X114307077Y-109854766D01*
X114814963Y-109926354D01*
X115310637Y-110071536D01*
X115785570Y-110290543D01*
X116086459Y-110477678D01*
X116371813Y-110697798D01*
X116507875Y-110820249D01*
X52438874Y-19717240D02*
X52325936Y-19376195D01*
X52038689Y-19172746D01*
X51991464Y-19160211D01*
X269384503Y-19160275D02*
X269080344Y-19338825D01*
X268939139Y-19665124D01*
X268936856Y-19715646D01*
X258515873Y-112790241D02*
X258626482Y-113122772D01*
X258932970Y-113328631D01*
X259071869Y-113346236D01*
X287505856Y-111021249D02*
X290962859Y-111021249D01*
X247183361Y-23905744D02*
X246672356Y-23958920D01*
X246168301Y-23960276D01*
X245674073Y-23911919D01*
X245192554Y-23815953D01*
X244726623Y-23674484D01*
X244279161Y-23489617D01*
X243853046Y-23263458D01*
X243451159Y-22998111D01*
X243076381Y-22695683D01*
X242731590Y-22358277D01*
X242419667Y-21988001D01*
X242143491Y-21586959D01*
X241905944Y-21157257D01*
X241709903Y-20700999D01*
X241558251Y-20220291D01*
X241453866Y-19717240D01*
X59438877Y-19717240D02*
X59342274Y-20120314D01*
X59201840Y-20503812D01*
X59020373Y-20864935D01*
X58800671Y-21200884D01*
X58545534Y-21508861D01*
X58257760Y-21786067D01*
X57940148Y-22029703D01*
X57595497Y-22236971D01*
X57226604Y-22405072D01*
X56836270Y-22531206D01*
X56565517Y-22590600D01*
X241453866Y-19717240D02*
X241341096Y-19375944D01*
X241054038Y-19172135D01*
X240884520Y-19146258D01*
X117262867Y-21471245D02*
X117036869Y-21471245D01*
X116472864Y-21705232D02*
X116180654Y-21946963D01*
X115865889Y-22155299D01*
X115531443Y-22328813D01*
X115180189Y-22466080D01*
X114815001Y-22565674D01*
X114690673Y-22590255D01*
X75733382Y-23905744D02*
X75222374Y-23958920D01*
X74718315Y-23960276D01*
X74224084Y-23911919D01*
X73742563Y-23815953D01*
X73276630Y-23674484D01*
X72829166Y-23489617D01*
X72403050Y-23263458D01*
X72001162Y-22998111D01*
X71626382Y-22695683D01*
X71281591Y-22358277D01*
X70969667Y-21988001D01*
X70693492Y-21586959D01*
X70455944Y-21157257D01*
X70259903Y-20700999D01*
X70108251Y-20220291D01*
X70003866Y-19717240D01*
X209905942Y-21523116D02*
X209643796Y-21775683D01*
X209362930Y-21996285D01*
X209065869Y-22184840D01*
X208595439Y-22407410D01*
X208102782Y-22557423D01*
X207596424Y-22634609D01*
X207084893Y-22638694D01*
X206576714Y-22569409D01*
X206080415Y-22426482D01*
X205604522Y-22209640D01*
X205302806Y-22023882D01*
X205016477Y-21805072D01*
X204879871Y-21683248D01*
X211383866Y-19146258D02*
X211042553Y-19259027D01*
X210838740Y-19546084D01*
X210812863Y-19715603D01*
X200996882Y-19146258D02*
X150518202Y-19146258D01*
X261367573Y-19146258D02*
X261365872Y-19146258D01*
X280986875Y-112775254D02*
X281070935Y-112415344D01*
X281191275Y-112067630D01*
X281346593Y-111734778D01*
X281535590Y-111419453D01*
X281756965Y-111124323D01*
X281837727Y-111030895D01*
X149193433Y-19952712D02*
X148956893Y-20346134D01*
X148675360Y-20687201D01*
X148355259Y-20975892D01*
X148003013Y-21212185D01*
X147625047Y-21396057D01*
X147227786Y-21527488D01*
X146817654Y-21606454D01*
X146401075Y-21632936D01*
X145984474Y-21606909D01*
X145574275Y-21528354D01*
X145176903Y-21397248D01*
X144798782Y-21213569D01*
X144446337Y-20977295D01*
X144125991Y-20688405D01*
X143844169Y-20346877D01*
X143607297Y-19952690D01*
X261365872Y-19146258D02*
X261339775Y-19146258D01*
X248597874Y-112790241D02*
X248671068Y-112418957D01*
X248771331Y-112058444D01*
X248825789Y-111895657D01*
X70003866Y-19717240D02*
X69891274Y-19376212D01*
X69604614Y-19172395D01*
X69435296Y-19146344D01*
X51991464Y-19160211D02*
X51869550Y-19146258D01*
X59438877Y-19715582D02*
X59438877Y-19717240D01*
X120378870Y-19146258D02*
X120378870Y-19146280D01*
X72777878Y-112790241D02*
X72888487Y-113122772D01*
X73194975Y-113328631D01*
X73333873Y-113346236D01*
X248825789Y-111895657D02*
X249019237Y-111423752D01*
X249257424Y-110977526D01*
X249537601Y-110559769D01*
X249857020Y-110173275D01*
X250212931Y-109820836D01*
X250602586Y-109505245D01*
X251023236Y-109229293D01*
X251472132Y-108995773D01*
X251946526Y-108807478D01*
X252443668Y-108667200D01*
X252786378Y-108601737D01*
X261339775Y-19146258D02*
X251942868Y-19146258D01*
X120378870Y-113346236D02*
X200996882Y-113346236D01*
X259071869Y-113346236D02*
X280415871Y-113346236D01*
X18337876Y-21146244D02*
X18337876Y-21396250D01*
X69434542Y-19146258D02*
X69432863Y-19146258D01*
X251371865Y-19715646D02*
X251371865Y-19717240D01*
X261425536Y-19152179D02*
X261367573Y-19146258D01*
X150518202Y-19146258D02*
X150161570Y-19190578D01*
X149831285Y-19315547D01*
X149540276Y-19513375D01*
X149301474Y-19776270D01*
X149193433Y-19952712D01*
X116992879Y-111021249D02*
X117262867Y-111021249D01*
X59947072Y-19152502D02*
X59622155Y-19299719D01*
X59449148Y-19608430D01*
X59438877Y-19715582D01*
X51869550Y-19146258D02*
X51867871Y-19146258D01*
X204879871Y-21683248D02*
X204577870Y-21502297D01*
X204366874Y-21471245D01*
X204112863Y-21471245D02*
X203713259Y-21446824D01*
X203326075Y-21375034D01*
X202954709Y-21258410D01*
X202602559Y-21099488D01*
X202273025Y-20900803D01*
X201969503Y-20664892D01*
X201695394Y-20394290D01*
X201454095Y-20091532D01*
X201249005Y-19759155D01*
X201083521Y-19399693D01*
X200996882Y-19146258D01*
X69435296Y-19146344D02*
X69434542Y-19146258D01*
X62859879Y-112790241D02*
X62938480Y-112391077D01*
X63047611Y-112004125D01*
X63185964Y-111630693D01*
X63352230Y-111272089D01*
X63545100Y-110929621D01*
X63763268Y-110604599D01*
X64005423Y-110298330D01*
X64270257Y-110012124D01*
X64556463Y-109747288D01*
X64862731Y-109505131D01*
X65187753Y-109286963D01*
X65530222Y-109094091D01*
X65888827Y-108927823D01*
X66262261Y-108789470D01*
X66649216Y-108680338D01*
X67048383Y-108601737D01*
X281837727Y-111030895D02*
X282093955Y-110772206D01*
X282369651Y-110545044D01*
X282662290Y-110349548D01*
X283127496Y-110115985D01*
X283616626Y-109954455D01*
X284121158Y-109865432D01*
X284632574Y-109849384D01*
X285142353Y-109906784D01*
X285641976Y-110038102D01*
X286122923Y-110243809D01*
X286428971Y-110422506D01*
X286720407Y-110634615D01*
X286859858Y-110753242D01*
X200996882Y-113346236D02*
X201134072Y-112970126D01*
X201313135Y-112619409D01*
X201530673Y-112296621D01*
X201783286Y-112004299D01*
X202067577Y-111744976D01*
X202380147Y-111521191D01*
X202717597Y-111335479D01*
X203076530Y-111190375D01*
X203453546Y-111088416D01*
X203845248Y-111032137D01*
X204112863Y-111021249D01*
X67048383Y-108601737D02*
X67501652Y-108551970D01*
X67949648Y-108543152D01*
X68390374Y-108573811D01*
X68821832Y-108642475D01*
X69242027Y-108747673D01*
X69648963Y-108887931D01*
X70040641Y-109061779D01*
X70415067Y-109267743D01*
X70770243Y-109504353D01*
X71104172Y-109770136D01*
X71414859Y-110063619D01*
X71700306Y-110383332D01*
X71958517Y-110727802D01*
X72187496Y-111095556D01*
X72385246Y-111485124D01*
X72549770Y-111895033D01*
X294078862Y-113346236D02*
X300788293Y-113346236D01*
X40958222Y-113346236D02*
X40959880Y-113346236D01*
X18337876Y-21396250D02*
X18337876Y-111096244D01*
X300788293Y-113346236D02*
X301037869Y-113346236D01*
X261936853Y-19717240D02*
X261821830Y-19374540D01*
X261529980Y-19172938D01*
X261425536Y-19152179D01*
X110562867Y-112775254D02*
X110652146Y-112397252D01*
X110781387Y-112033006D01*
X110949038Y-111685587D01*
X111153546Y-111358069D01*
X111393361Y-111053523D01*
X111480877Y-110957644D01*
X18337876Y-111096244D02*
X18337876Y-111346250D01*
X110562867Y-19717240D02*
X110450178Y-19376056D01*
X110163297Y-19172248D01*
X109993867Y-19146301D01*
X116507875Y-110820249D02*
X116825663Y-111000575D01*
X116992879Y-111021249D01*
X301037869Y-19146258D02*
X300787862Y-19146258D01*
X51789775Y-19146258D02*
X31528867Y-19146258D01*
X33987868Y-111021249D02*
X34328372Y-110917869D01*
X34421886Y-110841242D01*
X252786378Y-108601737D02*
X253297382Y-108548560D01*
X253801438Y-108547203D01*
X254295667Y-108595560D01*
X254777187Y-108691526D01*
X255243119Y-108832995D01*
X255690583Y-109017862D01*
X256116699Y-109244021D01*
X256518587Y-109509368D01*
X256893366Y-109811797D01*
X257238158Y-110149202D01*
X257550081Y-110519478D01*
X257826256Y-110920520D01*
X258063802Y-111350223D01*
X258259841Y-111806481D01*
X258411491Y-112287188D01*
X258515873Y-112790241D01*
X34421886Y-110841242D02*
X34720611Y-110583782D01*
X35044308Y-110362025D01*
X35389766Y-110177611D01*
X35753775Y-110032179D01*
X36133124Y-109927369D01*
X36262428Y-109901743D01*
X287846856Y-19146258D02*
X269507881Y-19146258D01*
X20587437Y-113346236D02*
X20587847Y-113346236D01*
X211383866Y-113346236D02*
X247057529Y-113346236D01*
X303037876Y-111096244D02*
X303037876Y-21396250D01*
X251371865Y-19717240D02*
X251293263Y-20116406D01*
X251184131Y-20503360D01*
X251045778Y-20876795D01*
X250879510Y-21235400D01*
X250686638Y-21577868D01*
X250468470Y-21902890D01*
X250226313Y-22209158D01*
X249961478Y-22495364D01*
X249675271Y-22760199D01*
X249369002Y-23002354D01*
X249043980Y-23220521D01*
X248701512Y-23413392D01*
X248342908Y-23579658D01*
X247969476Y-23718011D01*
X247582524Y-23827142D01*
X247183361Y-23905744D01*
X30412871Y-111021249D02*
X33987868Y-111021249D01*
X40388877Y-112775254D02*
X40501655Y-113116549D01*
X40788705Y-113320358D01*
X40958222Y-113346236D01*
X303037876Y-21146244D02*
X302997118Y-20743242D01*
X302880510Y-20367886D01*
X302696083Y-20028210D01*
X302451873Y-19732250D01*
X302155912Y-19488039D01*
X301816235Y-19303614D01*
X301440876Y-19187009D01*
X301037869Y-19146258D01*
X206686866Y-109901463D02*
X207047941Y-109855518D01*
X207404935Y-109846388D01*
X207755773Y-109872628D01*
X208265952Y-109975149D01*
X208750614Y-110149128D01*
X209202760Y-110389691D01*
X209615391Y-110691962D01*
X209981507Y-111051068D01*
X210294110Y-111462132D01*
X210546199Y-111920281D01*
X210677183Y-112249464D01*
X210776088Y-112595962D01*
X210812863Y-112775254D01*
X74323176Y-113346236D02*
X109991864Y-113346236D01*
X247057529Y-113346236D02*
X248041879Y-113346236D01*
X210812863Y-112775254D02*
X210925657Y-113116565D01*
X211212730Y-113320367D01*
X211382251Y-113346236D01*
X20587847Y-113346236D02*
X27296869Y-113346236D01*
X40959880Y-113346236D02*
X62303862Y-113346236D01*
X290962859Y-111021249D02*
X291362468Y-111045664D01*
X291749656Y-111117452D01*
X292121026Y-111234074D01*
X292473178Y-111392996D01*
X292802715Y-111591681D01*
X293106237Y-111827594D01*
X293380348Y-112098198D01*
X293621647Y-112400958D01*
X293826738Y-112733337D01*
X293992221Y-113092800D01*
X294078862Y-113346236D01*
X114690673Y-22590255D02*
X114329538Y-22636328D01*
X113972474Y-22645578D01*
X113621555Y-22619449D01*
X113111237Y-22517076D01*
X112626417Y-22343221D01*
X112174097Y-22102758D01*
X111761279Y-21800561D01*
X111394967Y-21441503D01*
X111082163Y-21030457D01*
X110829869Y-20572298D01*
X110698748Y-20243091D01*
X110599708Y-19896555D01*
X110562867Y-19717240D01*
X251942868Y-19146258D02*
X251601555Y-19259045D01*
X251397742Y-19546117D01*
X251371865Y-19715646D01*
X268936856Y-19715646D02*
X268936856Y-19717240D01*
X266063518Y-22590600D02*
X265702427Y-22636599D01*
X265345413Y-22645781D01*
X264994550Y-22619589D01*
X264484326Y-22517135D01*
X263999610Y-22343215D01*
X263547401Y-22102702D01*
X263134701Y-21800471D01*
X262768509Y-21441397D01*
X262455828Y-21030354D01*
X262203657Y-20572217D01*
X262072616Y-20243035D01*
X261973655Y-19896534D01*
X261936853Y-19717240D01*
M02*
