%TF.GenerationSoftware,KiCad,Pcbnew,7.0.1*%
%TF.CreationDate,2023-03-31T22:15:08-04:00*%
%TF.ProjectId,PCB,5043422e-6b69-4636-9164-5f7063625858,rev?*%
%TF.SameCoordinates,Original*%
%TF.FileFunction,Soldermask,Bot*%
%TF.FilePolarity,Negative*%
%FSLAX46Y46*%
G04 Gerber Fmt 4.6, Leading zero omitted, Abs format (unit mm)*
G04 Created by KiCad (PCBNEW 7.0.1) date 2023-03-31 22:15:08*
%MOMM*%
%LPD*%
G01*
G04 APERTURE LIST*
G04 Aperture macros list*
%AMRoundRect*
0 Rectangle with rounded corners*
0 $1 Rounding radius*
0 $2 $3 $4 $5 $6 $7 $8 $9 X,Y pos of 4 corners*
0 Add a 4 corners polygon primitive as box body*
4,1,4,$2,$3,$4,$5,$6,$7,$8,$9,$2,$3,0*
0 Add four circle primitives for the rounded corners*
1,1,$1+$1,$2,$3*
1,1,$1+$1,$4,$5*
1,1,$1+$1,$6,$7*
1,1,$1+$1,$8,$9*
0 Add four rect primitives between the rounded corners*
20,1,$1+$1,$2,$3,$4,$5,0*
20,1,$1+$1,$4,$5,$6,$7,0*
20,1,$1+$1,$6,$7,$8,$9,0*
20,1,$1+$1,$8,$9,$2,$3,0*%
%AMRotRect*
0 Rectangle, with rotation*
0 The origin of the aperture is its center*
0 $1 length*
0 $2 width*
0 $3 Rotation angle, in degrees counterclockwise*
0 Add horizontal line*
21,1,$1,$2,0,0,$3*%
G04 Aperture macros list end*
%ADD10RoundRect,0.243750X-0.456250X0.243750X-0.456250X-0.243750X0.456250X-0.243750X0.456250X0.243750X0*%
%ADD11C,1.750000*%
%ADD12C,3.987800*%
%ADD13C,2.300000*%
%ADD14RoundRect,0.285750X-0.666750X-0.666750X0.666750X-0.666750X0.666750X0.666750X-0.666750X0.666750X0*%
%ADD15C,1.905000*%
%ADD16C,4.000000*%
%ADD17RoundRect,0.050000X0.238649X0.309359X-0.309359X-0.238649X-0.238649X-0.309359X0.309359X0.238649X0*%
%ADD18RoundRect,0.050000X-0.238649X0.309359X-0.309359X0.238649X0.238649X-0.309359X0.309359X-0.238649X0*%
%ADD19RotRect,3.200000X3.200000X225.000000*%
%ADD20RoundRect,0.100000X0.162635X-0.021213X-0.021213X0.162635X-0.162635X0.021213X0.021213X-0.162635X0*%
%ADD21R,0.900000X1.200000*%
%ADD22R,1.200000X0.900000*%
%ADD23RoundRect,0.150000X0.150000X-0.512500X0.150000X0.512500X-0.150000X0.512500X-0.150000X-0.512500X0*%
%ADD24RoundRect,0.150000X-0.625000X0.150000X-0.625000X-0.150000X0.625000X-0.150000X0.625000X0.150000X0*%
%ADD25RoundRect,0.250000X-0.650000X0.350000X-0.650000X-0.350000X0.650000X-0.350000X0.650000X0.350000X0*%
%ADD26RoundRect,0.100000X0.021213X0.162635X-0.162635X-0.021213X-0.021213X-0.162635X0.162635X0.021213X0*%
%ADD27R,1.800000X1.100000*%
%ADD28RoundRect,0.100000X-0.100000X0.130000X-0.100000X-0.130000X0.100000X-0.130000X0.100000X0.130000X0*%
%ADD29RoundRect,0.100000X-0.130000X-0.100000X0.130000X-0.100000X0.130000X0.100000X-0.130000X0.100000X0*%
%ADD30RotRect,1.400000X1.200000X45.000000*%
%ADD31RoundRect,0.135000X-0.185000X0.135000X-0.185000X-0.135000X0.185000X-0.135000X0.185000X0.135000X0*%
%ADD32R,1.220000X0.650000*%
%ADD33RoundRect,0.100000X-0.162635X0.021213X0.021213X-0.162635X0.162635X-0.021213X-0.021213X0.162635X0*%
%ADD34RoundRect,0.100000X0.130000X0.100000X-0.130000X0.100000X-0.130000X-0.100000X0.130000X-0.100000X0*%
%ADD35RoundRect,0.162500X0.825000X0.162500X-0.825000X0.162500X-0.825000X-0.162500X0.825000X-0.162500X0*%
%ADD36RoundRect,0.100000X-0.021213X-0.162635X0.162635X0.021213X0.021213X0.162635X-0.162635X-0.021213X0*%
%ADD37RoundRect,0.218750X0.256250X-0.218750X0.256250X0.218750X-0.256250X0.218750X-0.256250X-0.218750X0*%
G04 APERTURE END LIST*
D10*
%TO.C,F1*%
X39150000Y-31622500D03*
X39150000Y-33497500D03*
%TD*%
D11*
%TO.C,SW44*%
X84171250Y-85296250D03*
D12*
X89251250Y-85296250D03*
D11*
X94331250Y-85296250D03*
D13*
X85441250Y-82756250D03*
X91791250Y-80216250D03*
%TD*%
D11*
%TO.C,SW49*%
X179421250Y-85296250D03*
D12*
X184501250Y-85296250D03*
D11*
X189581250Y-85296250D03*
D13*
X180691250Y-82756250D03*
X187041250Y-80216250D03*
%TD*%
D11*
%TO.C,SW41*%
X277052500Y-66246250D03*
D12*
X282132500Y-66246250D03*
D11*
X287212500Y-66246250D03*
D13*
X278322500Y-63706250D03*
X284672500Y-61166250D03*
%TD*%
D11*
%TO.C,SW2*%
X41308750Y-28146250D03*
D12*
X46388750Y-28146250D03*
D11*
X51468750Y-28146250D03*
D13*
X42578750Y-25606250D03*
X48928750Y-23066250D03*
%TD*%
D11*
%TO.C,SW64*%
X74646250Y-104346250D03*
D12*
X79726250Y-104346250D03*
D11*
X84806250Y-104346250D03*
D13*
X75916250Y-101806250D03*
X82266250Y-99266250D03*
%TD*%
D11*
%TO.C,SW56*%
X72265000Y-104346250D03*
D12*
X77345000Y-104346250D03*
D11*
X82425000Y-104346250D03*
D13*
X73535000Y-101806250D03*
X79885000Y-99266250D03*
%TD*%
D11*
%TO.C,SW25*%
X222283750Y-47196250D03*
D12*
X227363750Y-47196250D03*
D11*
X232443750Y-47196250D03*
D13*
X223553750Y-44656250D03*
X229903750Y-42116250D03*
%TD*%
D11*
%TO.C,SW58*%
X215140000Y-104346250D03*
D12*
X220220000Y-104346250D03*
D11*
X225300000Y-104346250D03*
D13*
X216410000Y-101806250D03*
X222760000Y-99266250D03*
%TD*%
D11*
%TO.C,SW47*%
X141321250Y-85296250D03*
D12*
X146401250Y-85296250D03*
D11*
X151481250Y-85296250D03*
D13*
X142591250Y-82756250D03*
X148941250Y-80216250D03*
%TD*%
D11*
%TO.C,SW24*%
X203233750Y-47196250D03*
D12*
X208313750Y-47196250D03*
D11*
X213393750Y-47196250D03*
D13*
X204503750Y-44656250D03*
X210853750Y-42116250D03*
%TD*%
D11*
%TO.C,SW4*%
X79408750Y-28146250D03*
D12*
X84488750Y-28146250D03*
D11*
X89568750Y-28146250D03*
D13*
X80678750Y-25606250D03*
X87028750Y-23066250D03*
%TD*%
D11*
%TO.C,SW67*%
X260383750Y-104346250D03*
D12*
X265463750Y-104346250D03*
D11*
X270543750Y-104346250D03*
D13*
X261653750Y-101806250D03*
X268003750Y-99266250D03*
%TD*%
D11*
%TO.C,SW53*%
X272290000Y-85296250D03*
D12*
X277370000Y-85296250D03*
D11*
X282450000Y-85296250D03*
D13*
X273560000Y-82756250D03*
X279910000Y-80216250D03*
%TD*%
D11*
%TO.C,SW13*%
X250858750Y-28146250D03*
D12*
X255938750Y-28146250D03*
D11*
X261018750Y-28146250D03*
D13*
X252128750Y-25606250D03*
X258478750Y-23066250D03*
%TD*%
D11*
%TO.C,SW43*%
X65121250Y-85296250D03*
D12*
X70201250Y-85296250D03*
D11*
X75281250Y-85296250D03*
D13*
X66391250Y-82756250D03*
X72741250Y-80216250D03*
%TD*%
D11*
%TO.C,SW74*%
X262719375Y-85296250D03*
D12*
X267799375Y-85296250D03*
D11*
X272879375Y-85296250D03*
D13*
X263989375Y-82756250D03*
X270339375Y-80216250D03*
%TD*%
D11*
%TO.C,SW8*%
X155608750Y-28146250D03*
D12*
X160688750Y-28146250D03*
D11*
X165768750Y-28146250D03*
D13*
X156878750Y-25606250D03*
X163228750Y-23066250D03*
%TD*%
D11*
%TO.C,SW45*%
X103221250Y-85296250D03*
D12*
X108301250Y-85296250D03*
D11*
X113381250Y-85296250D03*
D13*
X104491250Y-82756250D03*
X110841250Y-80216250D03*
%TD*%
D11*
%TO.C,SW59*%
X262765000Y-104346250D03*
D12*
X267845000Y-104346250D03*
D11*
X272925000Y-104346250D03*
D13*
X264035000Y-101806250D03*
X270385000Y-99266250D03*
%TD*%
D11*
%TO.C,SW26*%
X241333750Y-47196250D03*
D12*
X246413750Y-47196250D03*
D11*
X251493750Y-47196250D03*
D13*
X242603750Y-44656250D03*
X248953750Y-42116250D03*
%TD*%
D11*
%TO.C,SW68*%
X284196250Y-104346250D03*
D12*
X289276250Y-104346250D03*
D11*
X294356250Y-104346250D03*
D13*
X285466250Y-101806250D03*
X291816250Y-99266250D03*
%TD*%
D11*
%TO.C,SW23*%
X184183750Y-47196250D03*
D12*
X189263750Y-47196250D03*
D11*
X194343750Y-47196250D03*
D13*
X185453750Y-44656250D03*
X191803750Y-42116250D03*
%TD*%
D11*
%TO.C,SW31*%
X74646250Y-66246250D03*
D12*
X79726250Y-66246250D03*
D11*
X84806250Y-66246250D03*
D13*
X75916250Y-63706250D03*
X82266250Y-61166250D03*
%TD*%
D11*
%TO.C,SW33*%
X112746250Y-66246250D03*
D12*
X117826250Y-66246250D03*
D11*
X122906250Y-66246250D03*
D13*
X114016250Y-63706250D03*
X120366250Y-61166250D03*
%TD*%
D11*
%TO.C,SW29*%
X29402500Y-66246250D03*
D12*
X34482500Y-66246250D03*
D11*
X39562500Y-66246250D03*
D13*
X30672500Y-63706250D03*
X37022500Y-61166250D03*
%TD*%
D11*
%TO.C,SW52*%
X236571250Y-85296250D03*
D12*
X241651250Y-85296250D03*
D11*
X246731250Y-85296250D03*
D13*
X237841250Y-82756250D03*
X244191250Y-80216250D03*
%TD*%
D11*
%TO.C,SW69*%
X24640000Y-66246250D03*
D12*
X29720000Y-66246250D03*
D11*
X34800000Y-66246250D03*
D13*
X25910000Y-63706250D03*
X32260000Y-61166250D03*
%TD*%
D11*
%TO.C,SW9*%
X174658750Y-28146250D03*
D12*
X179738750Y-28146250D03*
D11*
X184818750Y-28146250D03*
D13*
X175928750Y-25606250D03*
X182278750Y-23066250D03*
%TD*%
D11*
%TO.C,SW75*%
X288958750Y-85296250D03*
D12*
X294038750Y-85296250D03*
D11*
X299118750Y-85296250D03*
D13*
X290228750Y-82756250D03*
X296578750Y-80216250D03*
%TD*%
D11*
%TO.C,SW19*%
X107983750Y-47196250D03*
D12*
X113063750Y-47196250D03*
D11*
X118143750Y-47196250D03*
D13*
X109253750Y-44656250D03*
X115603750Y-42116250D03*
%TD*%
D11*
%TO.C,SW5*%
X98458750Y-28146250D03*
D12*
X103538750Y-28146250D03*
D11*
X108618750Y-28146250D03*
D13*
X99728750Y-25606250D03*
X106078750Y-23066250D03*
%TD*%
D11*
%TO.C,SW62*%
X27021250Y-104346250D03*
D12*
X32101250Y-104346250D03*
D11*
X37181250Y-104346250D03*
D13*
X28291250Y-101806250D03*
X34641250Y-99266250D03*
%TD*%
D11*
%TO.C,SW16*%
X50833750Y-47196250D03*
D12*
X55913750Y-47196250D03*
D11*
X60993750Y-47196250D03*
D13*
X52103750Y-44656250D03*
X58453750Y-42116250D03*
%TD*%
D11*
%TO.C,SW1*%
X22258750Y-28146250D03*
D12*
X27338750Y-28146250D03*
D11*
X32418750Y-28146250D03*
D13*
X23528750Y-25606250D03*
X29878750Y-23066250D03*
%TD*%
D11*
%TO.C,SW3*%
X60358750Y-28146250D03*
D12*
X65438750Y-28146250D03*
D11*
X70518750Y-28146250D03*
D13*
X61628750Y-25606250D03*
X67978750Y-23066250D03*
%TD*%
D11*
%TO.C,SW51*%
X217521250Y-85296250D03*
D12*
X222601250Y-85296250D03*
D11*
X227681250Y-85296250D03*
D13*
X218791250Y-82756250D03*
X225141250Y-80216250D03*
%TD*%
D14*
%TO.C,D65*%
X35752500Y-71326250D03*
D15*
X33212500Y-71326250D03*
%TD*%
D11*
%TO.C,SW32*%
X93696250Y-66246250D03*
D12*
X98776250Y-66246250D03*
D11*
X103856250Y-66246250D03*
D13*
X94966250Y-63706250D03*
X101316250Y-61166250D03*
%TD*%
D16*
%TO.C,S6*%
X217838750Y-111331250D03*
D12*
X217838750Y-96091250D03*
D16*
X103538750Y-111331250D03*
D12*
X103538750Y-96091250D03*
%TD*%
D11*
%TO.C,SW42*%
X34165000Y-85296250D03*
D12*
X39245000Y-85296250D03*
D11*
X44325000Y-85296250D03*
D13*
X35435000Y-82756250D03*
X41785000Y-80216250D03*
%TD*%
D11*
%TO.C,SW12*%
X231808750Y-28146250D03*
D12*
X236888750Y-28146250D03*
D11*
X241968750Y-28146250D03*
D13*
X233078750Y-25606250D03*
X239428750Y-23066250D03*
%TD*%
D11*
%TO.C,SW15*%
X27021250Y-47196250D03*
D12*
X32101250Y-47196250D03*
D11*
X37181250Y-47196250D03*
D13*
X28291250Y-44656250D03*
X34641250Y-42116250D03*
%TD*%
D11*
%TO.C,SW18*%
X88933750Y-47196250D03*
D12*
X94013750Y-47196250D03*
D11*
X99093750Y-47196250D03*
D13*
X90203750Y-44656250D03*
X96553750Y-42116250D03*
%TD*%
D11*
%TO.C,SW20*%
X127033750Y-47196250D03*
D12*
X132113750Y-47196250D03*
D11*
X137193750Y-47196250D03*
D13*
X128303750Y-44656250D03*
X134653750Y-42116250D03*
%TD*%
D11*
%TO.C,SW11*%
X212758750Y-28146250D03*
D12*
X217838750Y-28146250D03*
D11*
X222918750Y-28146250D03*
D13*
X214028750Y-25606250D03*
X220378750Y-23066250D03*
%TD*%
D11*
%TO.C,SW30*%
X55596250Y-66246250D03*
D12*
X60676250Y-66246250D03*
D11*
X65756250Y-66246250D03*
D13*
X56866250Y-63706250D03*
X63216250Y-61166250D03*
%TD*%
D11*
%TO.C,SW17*%
X69883750Y-47196250D03*
D12*
X74963750Y-47196250D03*
D11*
X80043750Y-47196250D03*
D13*
X71153750Y-44656250D03*
X77503750Y-42116250D03*
%TD*%
D16*
%TO.C,S3*%
X265463750Y-78311250D03*
D12*
X265463750Y-93551250D03*
D16*
X289276250Y-78311250D03*
D12*
X289276250Y-93551250D03*
%TD*%
D11*
%TO.C,SW10*%
X193708750Y-28146250D03*
D12*
X198788750Y-28146250D03*
D11*
X203868750Y-28146250D03*
D13*
X194978750Y-25606250D03*
X201328750Y-23066250D03*
%TD*%
D11*
%TO.C,SW48*%
X160371250Y-85296250D03*
D12*
X165451250Y-85296250D03*
D11*
X170531250Y-85296250D03*
D13*
X161641250Y-82756250D03*
X167991250Y-80216250D03*
%TD*%
D16*
%TO.C,S2*%
X27338750Y-78311250D03*
D12*
X27338750Y-93551250D03*
D16*
X51151250Y-78311250D03*
D12*
X51151250Y-93551250D03*
%TD*%
D11*
%TO.C,SW38*%
X207996250Y-66246250D03*
D12*
X213076250Y-66246250D03*
D11*
X218156250Y-66246250D03*
D13*
X209266250Y-63706250D03*
X215616250Y-61166250D03*
%TD*%
D11*
%TO.C,SW14*%
X279433750Y-28146250D03*
D12*
X284513750Y-28146250D03*
D11*
X289593750Y-28146250D03*
D13*
X280703750Y-25606250D03*
X287053750Y-23066250D03*
%TD*%
D11*
%TO.C,SW40*%
X246096250Y-66246250D03*
D12*
X251176250Y-66246250D03*
D11*
X256256250Y-66246250D03*
D13*
X247366250Y-63706250D03*
X253716250Y-61166250D03*
%TD*%
D11*
%TO.C,SW22*%
X165133750Y-47196250D03*
D12*
X170213750Y-47196250D03*
D11*
X175293750Y-47196250D03*
D13*
X166403750Y-44656250D03*
X172753750Y-42116250D03*
%TD*%
D11*
%TO.C,SW39*%
X227046250Y-66246250D03*
D12*
X232126250Y-66246250D03*
D11*
X237206250Y-66246250D03*
D13*
X228316250Y-63706250D03*
X234666250Y-61166250D03*
%TD*%
D11*
%TO.C,SW66*%
X236571250Y-104346250D03*
D12*
X241651250Y-104346250D03*
D11*
X246731250Y-104346250D03*
D13*
X237841250Y-101806250D03*
X244191250Y-99266250D03*
%TD*%
D11*
%TO.C,SW60*%
X286577500Y-104346250D03*
D12*
X291657500Y-104346250D03*
D11*
X296737500Y-104346250D03*
D13*
X287847500Y-101806250D03*
X294197500Y-99266250D03*
%TD*%
D16*
%TO.C,S4*%
X270226250Y-59261250D03*
D12*
X270226250Y-74501250D03*
D16*
X294038750Y-59261250D03*
D12*
X294038750Y-74501250D03*
%TD*%
D11*
%TO.C,SW7*%
X136558750Y-28146250D03*
D12*
X141638750Y-28146250D03*
D11*
X146718750Y-28146250D03*
D13*
X137828750Y-25606250D03*
X144178750Y-23066250D03*
%TD*%
D11*
%TO.C,SW37*%
X188946250Y-66246250D03*
D12*
X194026250Y-66246250D03*
D11*
X199106250Y-66246250D03*
D13*
X190216250Y-63706250D03*
X196566250Y-61166250D03*
%TD*%
D11*
%TO.C,SW65*%
X155608750Y-104346250D03*
D12*
X160688750Y-104346250D03*
D11*
X165768750Y-104346250D03*
D13*
X156878750Y-101806250D03*
X163228750Y-99266250D03*
%TD*%
D11*
%TO.C,SW21*%
X146083750Y-47196250D03*
D12*
X151163750Y-47196250D03*
D11*
X156243750Y-47196250D03*
D13*
X147353750Y-44656250D03*
X153703750Y-42116250D03*
%TD*%
D11*
%TO.C,SW70*%
X288958750Y-28146250D03*
D12*
X294038750Y-28146250D03*
D11*
X299118750Y-28146250D03*
D13*
X290228750Y-25606250D03*
X296578750Y-23066250D03*
%TD*%
D11*
%TO.C,SW50*%
X198471250Y-85296250D03*
D12*
X203551250Y-85296250D03*
D11*
X208631250Y-85296250D03*
D13*
X199741250Y-82756250D03*
X206091250Y-80216250D03*
%TD*%
D11*
%TO.C,SW61*%
X238952500Y-104346250D03*
D12*
X244032500Y-104346250D03*
D11*
X249112500Y-104346250D03*
D13*
X240222500Y-101806250D03*
X246572500Y-99266250D03*
%TD*%
D11*
%TO.C,SW55*%
X48452500Y-104346250D03*
D12*
X53532500Y-104346250D03*
D11*
X58612500Y-104346250D03*
D13*
X49722500Y-101806250D03*
X56072500Y-99266250D03*
%TD*%
D11*
%TO.C,SW34*%
X131796250Y-66246250D03*
D12*
X136876250Y-66246250D03*
D11*
X141956250Y-66246250D03*
D13*
X133066250Y-63706250D03*
X139416250Y-61166250D03*
%TD*%
D11*
%TO.C,SW63*%
X50833750Y-104346250D03*
D12*
X55913750Y-104346250D03*
D11*
X60993750Y-104346250D03*
D13*
X52103750Y-101806250D03*
X58453750Y-99266250D03*
%TD*%
D11*
%TO.C,SW36*%
X169896250Y-66246250D03*
D12*
X174976250Y-66246250D03*
D11*
X180056250Y-66246250D03*
D13*
X171166250Y-63706250D03*
X177516250Y-61166250D03*
%TD*%
D16*
%TO.C,S1*%
X198788750Y-111331250D03*
D12*
X198788750Y-96091250D03*
D16*
X98776250Y-111331250D03*
D12*
X98776250Y-96091250D03*
%TD*%
D16*
%TO.C,S5*%
X272607500Y-21161250D03*
D12*
X272607500Y-36401250D03*
D16*
X296420000Y-21161250D03*
D12*
X296420000Y-36401250D03*
%TD*%
D11*
%TO.C,SW71*%
X269908750Y-28146250D03*
D12*
X274988750Y-28146250D03*
D11*
X280068750Y-28146250D03*
D13*
X271178750Y-25606250D03*
X277528750Y-23066250D03*
%TD*%
D11*
%TO.C,SW28*%
X284196250Y-47196250D03*
D12*
X289276250Y-47196250D03*
D11*
X294356250Y-47196250D03*
D13*
X285466250Y-44656250D03*
X291816250Y-42116250D03*
%TD*%
D11*
%TO.C,SW35*%
X150846250Y-66246250D03*
D12*
X155926250Y-66246250D03*
D11*
X161006250Y-66246250D03*
D13*
X152116250Y-63706250D03*
X158466250Y-61166250D03*
%TD*%
D11*
%TO.C,SW27*%
X260383750Y-47196250D03*
D12*
X265463750Y-47196250D03*
D11*
X270543750Y-47196250D03*
D13*
X261653750Y-44656250D03*
X268003750Y-42116250D03*
%TD*%
D11*
%TO.C,SW57*%
X143702500Y-104346250D03*
D12*
X148782500Y-104346250D03*
D11*
X153862500Y-104346250D03*
D13*
X144972500Y-101806250D03*
X151322500Y-99266250D03*
%TD*%
D14*
%TO.C,D64*%
X30990000Y-71326250D03*
D15*
X28450000Y-71326250D03*
%TD*%
D11*
%TO.C,SW46*%
X122271250Y-85296250D03*
D12*
X127351250Y-85296250D03*
D11*
X132431250Y-85296250D03*
D13*
X123541250Y-82756250D03*
X129891250Y-80216250D03*
%TD*%
D11*
%TO.C,SW54*%
X24640000Y-104346250D03*
D12*
X29720000Y-104346250D03*
D11*
X34800000Y-104346250D03*
D13*
X25910000Y-101806250D03*
X32260000Y-99266250D03*
%TD*%
D11*
%TO.C,SW6*%
X117508750Y-28146250D03*
D12*
X122588750Y-28146250D03*
D11*
X127668750Y-28146250D03*
D13*
X118778750Y-25606250D03*
X125128750Y-23066250D03*
%TD*%
D17*
%TO.C,U1*%
X118418452Y-96505218D03*
X118701295Y-96788061D03*
X118984137Y-97070903D03*
X119266980Y-97353746D03*
X119549823Y-97636589D03*
X119832665Y-97919431D03*
X120115508Y-98202274D03*
X120398351Y-98485117D03*
X120681194Y-98767960D03*
X120964036Y-99050802D03*
X121246879Y-99333645D03*
X121529722Y-99616488D03*
X121812564Y-99899330D03*
X122095407Y-100182173D03*
D18*
X122095407Y-101366577D03*
X121812564Y-101649420D03*
X121529722Y-101932262D03*
X121246879Y-102215105D03*
X120964036Y-102497948D03*
X120681194Y-102780790D03*
X120398351Y-103063633D03*
X120115508Y-103346476D03*
X119832665Y-103629319D03*
X119549823Y-103912161D03*
X119266980Y-104195004D03*
X118984137Y-104477847D03*
X118701295Y-104760689D03*
X118418452Y-105043532D03*
D17*
X117234048Y-105043532D03*
X116951205Y-104760689D03*
X116668363Y-104477847D03*
X116385520Y-104195004D03*
X116102677Y-103912161D03*
X115819835Y-103629319D03*
X115536992Y-103346476D03*
X115254149Y-103063633D03*
X114971306Y-102780790D03*
X114688464Y-102497948D03*
X114405621Y-102215105D03*
X114122778Y-101932262D03*
X113839936Y-101649420D03*
X113557093Y-101366577D03*
D18*
X113557093Y-100182173D03*
X113839936Y-99899330D03*
X114122778Y-99616488D03*
X114405621Y-99333645D03*
X114688464Y-99050802D03*
X114971306Y-98767960D03*
X115254149Y-98485117D03*
X115536992Y-98202274D03*
X115819835Y-97919431D03*
X116102677Y-97636589D03*
X116385520Y-97353746D03*
X116668363Y-97070903D03*
X116951205Y-96788061D03*
X117234048Y-96505218D03*
D19*
X117826250Y-100774375D03*
%TD*%
D20*
%TO.C,C16*%
X114635024Y-95387524D03*
X114182476Y-94934976D03*
%TD*%
D21*
%TO.C,D43*%
X40849375Y-90820625D03*
X37549375Y-90820625D03*
%TD*%
%TO.C,D42*%
X283736875Y-71770625D03*
X280436875Y-71770625D03*
%TD*%
%TO.C,D20*%
X114668125Y-52720625D03*
X111368125Y-52720625D03*
%TD*%
%TO.C,D31*%
X62280625Y-71770625D03*
X58980625Y-71770625D03*
%TD*%
D20*
%TO.C,C10*%
X113519338Y-96503209D03*
X113066790Y-96050661D03*
%TD*%
D21*
%TO.C,D54*%
X278974375Y-90820625D03*
X275674375Y-90820625D03*
%TD*%
%TO.C,D11*%
X200393125Y-33670625D03*
X197093125Y-33670625D03*
%TD*%
%TO.C,D33*%
X100380625Y-71770625D03*
X97080625Y-71770625D03*
%TD*%
%TO.C,D17*%
X57518125Y-52720625D03*
X54218125Y-52720625D03*
%TD*%
%TO.C,D52*%
X224205625Y-90820625D03*
X220905625Y-90820625D03*
%TD*%
%TO.C,D13*%
X238493125Y-33670625D03*
X235193125Y-33670625D03*
%TD*%
D20*
%TO.C,C6*%
X112235024Y-101937524D03*
X111782476Y-101484976D03*
%TD*%
D21*
%TO.C,D6*%
X105143125Y-33670625D03*
X101843125Y-33670625D03*
%TD*%
%TO.C,D15*%
X290880625Y-33670625D03*
X287580625Y-33670625D03*
%TD*%
%TO.C,D45*%
X90855625Y-90820625D03*
X87555625Y-90820625D03*
%TD*%
D22*
%TO.C,D62*%
X280830750Y-99267250D03*
X280830750Y-102567250D03*
%TD*%
D21*
%TO.C,D29*%
X290880625Y-52720625D03*
X287580625Y-52720625D03*
%TD*%
D23*
%TO.C,U3*%
X37366875Y-32838750D03*
X36416875Y-32838750D03*
X35466875Y-32838750D03*
X35466875Y-30563750D03*
X36416875Y-30563750D03*
X37366875Y-30563750D03*
%TD*%
D24*
%TO.C,J2*%
X41106875Y-37744375D03*
X41106875Y-38744375D03*
X41106875Y-39744375D03*
X41106875Y-40744375D03*
D25*
X44981875Y-36444375D03*
X44981875Y-42044375D03*
%TD*%
D21*
%TO.C,D57*%
X90964750Y-99155000D03*
X87664750Y-99155000D03*
%TD*%
%TO.C,D12*%
X219443125Y-33670625D03*
X216143125Y-33670625D03*
%TD*%
%TO.C,D1*%
X281355625Y-33670625D03*
X278055625Y-33670625D03*
%TD*%
D20*
%TO.C,R3*%
X121965024Y-105917524D03*
X121512476Y-105464976D03*
%TD*%
D21*
%TO.C,D63*%
X292388750Y-90820625D03*
X295688750Y-90820625D03*
%TD*%
%TO.C,D27*%
X248018125Y-52720625D03*
X244718125Y-52720625D03*
%TD*%
%TO.C,D5*%
X86093125Y-33670625D03*
X82793125Y-33670625D03*
%TD*%
D26*
%TO.C,C11*%
X115275024Y-104714976D03*
X114822476Y-105167524D03*
%TD*%
D21*
%TO.C,D28*%
X267068125Y-52720625D03*
X263768125Y-52720625D03*
%TD*%
%TO.C,D50*%
X186105625Y-90820625D03*
X182805625Y-90820625D03*
%TD*%
D27*
%TO.C,SW73*%
X96708750Y-102491250D03*
X90508750Y-102491250D03*
X96708750Y-106191250D03*
X90508750Y-106191250D03*
%TD*%
D20*
%TO.C,C5*%
X114085024Y-95937524D03*
X113632476Y-95484976D03*
%TD*%
D28*
%TO.C,R4*%
X43508750Y-21531250D03*
X43508750Y-22171250D03*
%TD*%
D21*
%TO.C,D21*%
X133718125Y-52720625D03*
X130418125Y-52720625D03*
%TD*%
%TO.C,D51*%
X205155625Y-90820625D03*
X201855625Y-90820625D03*
%TD*%
%TO.C,D56*%
X67043125Y-99155000D03*
X63743125Y-99155000D03*
%TD*%
D20*
%TO.C,C4*%
X118905024Y-95377524D03*
X118452476Y-94924976D03*
%TD*%
D29*
%TO.C,C13*%
X43988750Y-30411250D03*
X44628750Y-30411250D03*
%TD*%
D21*
%TO.C,D55*%
X43230625Y-99155000D03*
X39930625Y-99155000D03*
%TD*%
%TO.C,D38*%
X195630625Y-71770625D03*
X192330625Y-71770625D03*
%TD*%
D30*
%TO.C,Y1*%
X123229892Y-106788027D03*
X124785527Y-105232392D03*
X125987608Y-106434473D03*
X124431973Y-107990108D03*
%TD*%
D31*
%TO.C,R7*%
X35770000Y-73680000D03*
X35770000Y-74700000D03*
%TD*%
D32*
%TO.C,U4*%
X45618750Y-31661250D03*
X45618750Y-33561250D03*
X42998750Y-32611250D03*
%TD*%
D22*
%TO.C,D61*%
X276766750Y-99267250D03*
X276766750Y-102567250D03*
%TD*%
D21*
%TO.C,D7*%
X124193125Y-33670625D03*
X120893125Y-33670625D03*
%TD*%
%TO.C,D24*%
X190868125Y-52720625D03*
X187568125Y-52720625D03*
%TD*%
%TO.C,D32*%
X81330625Y-71770625D03*
X78030625Y-71770625D03*
%TD*%
%TO.C,D60*%
X257588750Y-99155000D03*
X254288750Y-99155000D03*
%TD*%
D33*
%TO.C,R1*%
X113542806Y-97664646D03*
X113995354Y-98117194D03*
%TD*%
D21*
%TO.C,D58*%
X171990750Y-99155000D03*
X168690750Y-99155000D03*
%TD*%
D20*
%TO.C,R2*%
X113465024Y-98647524D03*
X113012476Y-98194976D03*
%TD*%
%TO.C,C14*%
X112885024Y-99237524D03*
X112432476Y-98784976D03*
%TD*%
D21*
%TO.C,D14*%
X257543125Y-33670625D03*
X254243125Y-33670625D03*
%TD*%
%TO.C,D4*%
X67043125Y-33670625D03*
X63743125Y-33670625D03*
%TD*%
%TO.C,D18*%
X76568125Y-52720625D03*
X73268125Y-52720625D03*
%TD*%
%TO.C,D8*%
X143243125Y-33670625D03*
X139943125Y-33670625D03*
%TD*%
D33*
%TO.C,C12*%
X120282476Y-106584976D03*
X120735024Y-107037524D03*
%TD*%
D21*
%TO.C,D40*%
X233730625Y-71770625D03*
X230430625Y-71770625D03*
%TD*%
%TO.C,D59*%
X233712750Y-99155000D03*
X230412750Y-99155000D03*
%TD*%
D31*
%TO.C,R6*%
X30970000Y-73680000D03*
X30970000Y-74700000D03*
%TD*%
D34*
%TO.C,C15*%
X44628750Y-34811250D03*
X43988750Y-34811250D03*
%TD*%
D21*
%TO.C,D36*%
X157530625Y-71770625D03*
X154230625Y-71770625D03*
%TD*%
D27*
%TO.C,SW72*%
X106198750Y-102491250D03*
X99998750Y-102491250D03*
X106198750Y-106191250D03*
X99998750Y-106191250D03*
%TD*%
D21*
%TO.C,D48*%
X148005625Y-90820625D03*
X144705625Y-90820625D03*
%TD*%
%TO.C,D26*%
X228968125Y-52720625D03*
X225668125Y-52720625D03*
%TD*%
D33*
%TO.C,C1*%
X126132476Y-104384976D03*
X126585024Y-104837524D03*
%TD*%
D21*
%TO.C,D9*%
X162293125Y-33670625D03*
X158993125Y-33670625D03*
%TD*%
%TO.C,D34*%
X119430625Y-71770625D03*
X116130625Y-71770625D03*
%TD*%
D34*
%TO.C,R5*%
X35218750Y-28281250D03*
X34578750Y-28281250D03*
%TD*%
D21*
%TO.C,D47*%
X128955625Y-90820625D03*
X125655625Y-90820625D03*
%TD*%
D20*
%TO.C,C7*%
X111735024Y-100387524D03*
X111282476Y-99934976D03*
%TD*%
D21*
%TO.C,D46*%
X109905625Y-90820625D03*
X106605625Y-90820625D03*
%TD*%
%TO.C,D16*%
X33705625Y-52720625D03*
X30405625Y-52720625D03*
%TD*%
%TO.C,D35*%
X138480625Y-71770625D03*
X135180625Y-71770625D03*
%TD*%
%TO.C,D10*%
X181343125Y-33670625D03*
X178043125Y-33670625D03*
%TD*%
D33*
%TO.C,C2*%
X122382476Y-108384976D03*
X122835024Y-108837524D03*
%TD*%
D22*
%TO.C,D3*%
X55868125Y-29367500D03*
X55868125Y-26067500D03*
%TD*%
D21*
%TO.C,D25*%
X209918125Y-52720625D03*
X206618125Y-52720625D03*
%TD*%
%TO.C,D30*%
X45920000Y-70190000D03*
X42620000Y-70190000D03*
%TD*%
D35*
%TO.C,U2*%
X120318125Y-88915625D03*
X120318125Y-90185625D03*
X120318125Y-91455625D03*
X120318125Y-92725625D03*
X115243125Y-92725625D03*
X115243125Y-91455625D03*
X115243125Y-90185625D03*
X115243125Y-88915625D03*
%TD*%
D21*
%TO.C,D41*%
X252780625Y-71770625D03*
X249480625Y-71770625D03*
%TD*%
%TO.C,D53*%
X243255625Y-90820625D03*
X239955625Y-90820625D03*
%TD*%
%TO.C,D39*%
X214680625Y-71770625D03*
X211380625Y-71770625D03*
%TD*%
D36*
%TO.C,C8*%
X121782476Y-98217524D03*
X122235024Y-97764976D03*
%TD*%
D21*
%TO.C,D2*%
X28943125Y-33670625D03*
X25643125Y-33670625D03*
%TD*%
D20*
%TO.C,C3*%
X112300709Y-99821839D03*
X111848161Y-99369291D03*
%TD*%
D21*
%TO.C,D19*%
X95618125Y-52720625D03*
X92318125Y-52720625D03*
%TD*%
D37*
%TO.C,FB1*%
X40930000Y-33307500D03*
X40930000Y-31732500D03*
%TD*%
D21*
%TO.C,D23*%
X171818125Y-52720625D03*
X168518125Y-52720625D03*
%TD*%
%TO.C,D49*%
X167055625Y-90820625D03*
X163755625Y-90820625D03*
%TD*%
D33*
%TO.C,C9*%
X120882476Y-106034976D03*
X121335024Y-106487524D03*
%TD*%
D21*
%TO.C,D22*%
X152768125Y-52720625D03*
X149468125Y-52720625D03*
%TD*%
%TO.C,D37*%
X176580625Y-71770625D03*
X173280625Y-71770625D03*
%TD*%
%TO.C,D44*%
X71805625Y-90820625D03*
X68505625Y-90820625D03*
%TD*%
M02*
