M48
; DRILL file {KiCad 7.0.1} date Fri Mar 31 22:15:08 2023
; FORMAT={-:-/ absolute / inch / decimal}
; #@! TF.CreationDate,2023-03-31T22:15:08-04:00
; #@! TF.GenerationSoftware,Kicad,Pcbnew,7.0.1
; #@! TF.FileFunction,Plated,1,4,PTH
FMAT,2
INCH
; #@! TA.AperFunction,Plated,PTH,ViaDrill
T1C0.0079
; #@! TA.AperFunction,Plated,PTH,ComponentDrill
T2C0.0079
; #@! TA.AperFunction,Plated,PTH,ViaDrill
T3C0.0157
; #@! TA.AperFunction,Plated,PTH,ComponentDrill
T4C0.0157
; #@! TA.AperFunction,Plated,PTH,ComponentDrill
T5C0.0236
; #@! TA.AperFunction,Plated,PTH,ComponentDrill
T6C0.0409
; #@! TA.AperFunction,Plated,PTH,ComponentDrill
T7C0.0600
; #@! TA.AperFunction,Plated,PTH,ComponentDrill
T8C0.1200
%
G90
G05
T1
X1.3586Y-3.0575
X1.4713Y-2.8264
X2.4972Y-3.0544
X3.1381Y-1.3256
X3.3255Y-3.0441
X3.346Y-2.0756
X3.5618Y-2.8256
X3.9992Y-3.013
X4.246Y-4.1812
X4.3614Y-3.9138
X4.3779Y-3.9733
X4.3807Y-4.0154
X4.3834Y-3.8918
X4.3976Y-4.0335
X4.4062Y-3.8689
X4.4353Y-4.0291
X4.4441Y-3.8113
X4.4496Y-4.0563
X4.4769Y-4.0813
X4.4792Y-4.049
X4.4988Y-4.1619
X4.5019Y-4.0839
X4.5586Y-4.1434
X4.6905Y-3.7184
X4.7073Y-3.7336
X4.7348Y-3.0006
X4.7604Y-4.1296
X4.774Y-4.2347
X4.798Y-4.2268
X4.8318Y-3.6906
X4.833Y-3.867
X4.8393Y-3.8363
X4.8578Y-4.3067
X4.8677Y-4.1213
X4.9366Y-4.289
X5.0066Y-4.1504
X5.2388Y-2.7448
X5.9888Y-2.7641
X6.7388Y-2.7496
X7.4888Y-2.7614
X8.2388Y-2.8017
X8.9888Y-2.6529
X9.7388Y-2.8064
X10.0192Y-3.0532
T2
X4.5637Y-3.9675
X4.6388Y-3.8923
X4.6388Y-4.0427
X4.714Y-3.9675
T3
X1.1885Y-1.3256
X1.3775Y-2.0756
X1.4334Y-1.152
X1.4334Y-1.3513
X1.5444Y-1.604
X1.611Y-1.1949
X1.6562Y-3.5756
X1.6759Y-1.5252
X1.6759Y-1.5646
X1.7503Y-3.9036
X1.861Y-1.2465
X1.8629Y-1.2867
X2.1996Y-1.3256
X2.3137Y-2.0756
X2.4996Y-2.8256
X2.687Y-1.3256
X2.6901Y-3.904
X2.8751Y-3.5756
X3.0657Y-2.0756
X3.25Y-2.8256
X3.4409Y-1.3256
X3.624Y-3.5756
X3.6338Y-3.9036
X3.8118Y-2.0756
X4.0015Y-2.8256
X4.1893Y-1.3256
X4.3698Y-3.7365
X4.3748Y-3.5756
X4.3947Y-3.7631
X4.4204Y-3.7079
X4.45Y-3.7355
X4.4649Y-3.5004
X4.474Y-3.704
X4.5633Y-2.0756
X4.6712Y-3.6296
X4.75Y-2.8256
X4.9401Y-1.3256
X5.1283Y-3.5756
X5.3165Y-2.0756
X5.4996Y-2.8256
X5.6897Y-1.3256
X5.8791Y-3.5756
X6.0629Y-2.0756
X6.25Y-2.8256
X6.4366Y-1.3256
X6.6271Y-3.5756
X6.8204Y-2.0756
X6.8212Y-3.904
X7.0043Y-2.8256
X7.1881Y-1.3256
X7.3763Y-3.5756
X7.5645Y-2.0756
X7.7492Y-2.8256
X7.9354Y-1.3256
X8.1255Y-3.5756
X8.3118Y-2.0756
X8.5023Y-2.8256
X8.6874Y-1.3256
X8.8759Y-3.5756
X9.0669Y-2.0756
X9.2496Y-2.8256
X9.2503Y-3.9036
X9.4389Y-1.3256
X9.6248Y-3.5756
X9.8137Y-2.0756
X10.0051Y-2.8256
X10.0866Y-3.191
X10.1925Y-3.9036
X10.1937Y-1.3256
X10.5649Y-2.0756
X10.8984Y-3.8213
X11.0362Y-3.5756
X11.0563Y-3.8213
X11.1244Y-1.3256
X11.2267Y-2.8256
X11.4583Y-3.5756
X11.5011Y-1.3256
X11.5043Y-2.0756
T4
X1.3166Y-0.996
X1.3166Y-1.0492
X1.3501Y-0.996
X1.3501Y-1.0492
X1.3835Y-0.996
X1.3835Y-1.0492
X1.417Y-0.996
X1.417Y-1.0492
X1.4505Y-0.996
X1.4505Y-1.0492
X1.4839Y-0.996
X1.4839Y-1.0492
X1.5174Y-0.996
X1.5174Y-1.0492
X1.5509Y-0.996
X1.5509Y-1.0492
T6
X1.1201Y-2.8081
X1.2201Y-2.8081
X1.3076Y-2.8081
X1.4076Y-2.8081
T7
X0.9263Y-1.0081
X1.0201Y-2.5081
X1.0201Y-4.0081
X1.1138Y-1.7581
X1.1138Y-4.0081
X1.1763Y-0.9081
X1.2076Y-2.5081
X1.2701Y-2.4081
X1.2701Y-3.9081
X1.3638Y-1.6581
X1.3638Y-3.9081
X1.3951Y-3.2581
X1.4576Y-2.4081
X1.6451Y-3.1581
X1.6763Y-1.0081
X1.9263Y-0.9081
X1.9576Y-4.0081
X2.0513Y-1.7581
X2.0513Y-4.0081
X2.2076Y-3.9081
X2.2388Y-2.5081
X2.3013Y-1.6581
X2.3013Y-3.9081
X2.4263Y-1.0081
X2.4888Y-2.4081
X2.6138Y-3.2581
X2.6763Y-0.9081
X2.8013Y-1.7581
X2.8638Y-3.1581
X2.8951Y-4.0081
X2.9888Y-2.5081
X2.9888Y-4.0081
X3.0513Y-1.6581
X3.1451Y-3.9081
X3.1763Y-1.0081
X3.2388Y-2.4081
X3.2388Y-3.9081
X3.3638Y-3.2581
X3.4263Y-0.9081
X3.5513Y-1.7581
X3.6138Y-3.1581
X3.7388Y-2.5081
X3.8013Y-1.6581
X3.9263Y-1.0081
X3.9888Y-2.4081
X4.1138Y-3.2581
X4.1763Y-0.9081
X4.3013Y-1.7581
X4.3638Y-3.1581
X4.4888Y-2.5081
X4.5513Y-1.6581
X4.6763Y-1.0081
X4.7388Y-2.4081
X4.8638Y-3.2581
X4.9263Y-0.9081
X5.0513Y-1.7581
X5.1138Y-3.1581
X5.2388Y-2.5081
X5.3013Y-1.6581
X5.4263Y-1.0081
X5.4888Y-2.4081
X5.6138Y-3.2581
X5.6763Y-0.9081
X5.7076Y-4.0081
X5.8013Y-1.7581
X5.8638Y-3.1581
X5.9576Y-3.9081
X5.9888Y-2.5081
X6.0513Y-1.6581
X6.1763Y-1.0081
X6.1763Y-4.0081
X6.2388Y-2.4081
X6.3638Y-3.2581
X6.4263Y-0.9081
X6.4263Y-3.9081
X6.5513Y-1.7581
X6.6138Y-3.1581
X6.7388Y-2.5081
X6.8013Y-1.6581
X6.9263Y-1.0081
X6.9888Y-2.4081
X7.1138Y-3.2581
X7.1763Y-0.9081
X7.3013Y-1.7581
X7.3638Y-3.1581
X7.4888Y-2.5081
X7.5513Y-1.6581
X7.6763Y-1.0081
X7.7388Y-2.4081
X7.8638Y-3.2581
X7.9263Y-0.9081
X8.0513Y-1.7581
X8.1138Y-3.1581
X8.2388Y-2.5081
X8.3013Y-1.6581
X8.4263Y-1.0081
X8.4888Y-2.4081
X8.5201Y-4.0081
X8.6138Y-3.2581
X8.6763Y-0.9081
X8.7701Y-3.9081
X8.8013Y-1.7581
X8.8638Y-3.1581
X8.9888Y-2.5081
X9.0513Y-1.6581
X9.1763Y-1.0081
X9.2388Y-2.4081
X9.3638Y-3.2581
X9.3638Y-4.0081
X9.4263Y-0.9081
X9.4576Y-4.0081
X9.5513Y-1.7581
X9.6138Y-3.1581
X9.6138Y-3.9081
X9.7076Y-3.9081
X9.7388Y-2.5081
X9.8013Y-1.6581
X9.9263Y-1.0081
X9.9888Y-2.4081
X10.1763Y-0.9081
X10.3013Y-1.7581
X10.3013Y-4.0081
X10.3933Y-3.2581
X10.3951Y-4.0081
X10.5513Y-1.6581
X10.5513Y-3.9081
X10.6433Y-3.1581
X10.6451Y-3.9081
X10.6763Y-1.0081
X10.7701Y-3.2581
X10.9263Y-0.9081
X10.9576Y-2.5081
X11.0201Y-3.1581
X11.0513Y-1.0081
X11.2076Y-2.4081
X11.2388Y-1.7581
X11.2388Y-4.0081
X11.3013Y-0.9081
X11.3326Y-4.0081
X11.4263Y-1.0081
X11.4263Y-3.2581
X11.4888Y-1.6581
X11.4888Y-3.9081
X11.5826Y-3.9081
X11.6763Y-0.9081
X11.6763Y-3.1581
T8
X1.0763Y-3.0831
X2.0138Y-3.0831
X3.8888Y-4.3831
X4.0763Y-4.3831
X7.8263Y-4.3831
X8.5763Y-4.3831
X10.4513Y-3.0831
X10.6388Y-2.3331
X10.7326Y-0.8331
X11.3888Y-3.0831
X11.5763Y-2.3331
X11.6701Y-0.8331
T5
G00X1.2635Y-0.8618
M15
G01X1.2635Y-0.8933
M16
G05
G00X1.2635Y-0.9811
M15
G01X1.2635Y-1.0401
M16
G05
G00X1.604Y-0.8618
M15
G01X1.604Y-0.8933
M16
G05
G00X1.604Y-0.9811
M15
G01X1.604Y-1.0401
M16
G05
T0
M30
